<?xml version="1.0" encoding="UTF-8"?>
<svg id="Layer_1" xmlns="http://www.w3.org/2000/svg" version="1.1" xmlns:xlink="http://www.w3.org/1999/xlink" viewBox="0 0 147.12 1009.67">
  <!-- Generator: Adobe Illustrator 29.2.0, SVG Export Plug-In . SVG Version: 2.1.0 Build 108)  -->
  <defs>
    <style>
      .st0 {
        fill: #fff;
      }

      .st1, .st2, .st3 {
        fill: #262626;
      }

      .st4 {
        fill: none;
      }

      .st5 {
        clip-path: url(#clippath-1);
      }

      .st6, .st7 {
        display: none;
      }

      .st2 {
        font-family: ArialMT, Arial;
        font-size: 7.81px;
      }

      .st8, .st7 {
        fill: #d18d33;
      }

      .st9 {
        clip-path: url(#clippath-2);
      }

      .st10 {
        fill: #0a0a0a;
      }

      .st11 {
        clip-path: url(#clippath);
      }

      .st12 {
        fill: #fbb03b;
      }

      .st3 {
        font-family: MyriadPro-Regular, 'Myriad Pro';
        font-size: 12px;
        letter-spacing: .2em;
      }
    </style>
    <clipPath id="clippath">
      <path class="st12" d="M167.5,280.48l-35.69,32.87v-184.82h33.75c3.22,0,5.82,2.61,5.82,5.82v137.27c0,3.36-1.41,6.58-3.88,8.86Z"/>
    </clipPath>
    <clipPath id="clippath-1">
      <rect class="st4" x="80.51" y="848" width="29.49" height="131.91"/>
    </clipPath>
    <clipPath id="clippath-2">
      <path class="st4" d="M-8.35,0h118.3c14.91,0,27.01,12.1,27.01,27.01v955.65c0,14.91-12.1,27.01-27.01,27.01H-8.35V0h0Z"/>
    </clipPath>
  </defs>
  <g class="st6">
    <path class="st12" d="M167.5,280.48l-35.69,32.87v-184.82h33.75c3.22,0,5.82,2.61,5.82,5.82v137.27c0,3.36-1.41,6.58-3.88,8.86Z"/>
    <g class="st11">
      <path class="st8" d="M137.2,128.41h-13.5v192.59l10.28-9.03c3.77-3.31,5.94-8.09,5.94-13.12v-167.73c0-1.5-1.22-2.72-2.72-2.72Z"/>
    </g>
  </g>
  <path class="st10" d="M109.95,1009.67H-68.48V0H109.95c14.92,0,27.01,12.09,27.01,27.01v955.65c0,14.92-12.09,27.01-27.01,27.01Z"/>
  <g class="st5">
    <g>
      <path class="st1" d="M123.65,889.83v4.27H51.66c.8-1.27.8-3,0-4.27h71.99Z"/>
      <path class="st1" d="M123.65,942.1v4.27H51.66c.8-1.27.8-3,0-4.27h71.99Z"/>
      <path class="st1" d="M123.65,936.76v4.27H51.66c.8-1.27.8-3,0-4.27h71.99Z"/>
      <path class="st1" d="M123.65,970.89v3.2H51.66c.77-1.14.76-2.07,0-3.2h71.99Z"/>
      <rect class="st1" x="51.66" y="912.23" width="71.99" height="2.13"/>
      <rect class="st1" x="51.66" y="923.96" width="71.99" height="2.13"/>
      <rect class="st1" x="51.66" y="930.36" width="71.99" height="2.13"/>
      <rect class="st1" x="51.66" y="933.56" width="71.99" height="2.13"/>
      <rect class="st1" x="51.66" y="953.83" width="71.99" height="2.13"/>
      <rect class="st1" x="51.66" y="977.29" width="71.99" height="2.13"/>
      <rect class="st1" x="51.66" y="965.56" width="71.99" height="2.13"/>
      <rect class="st1" x="51.66" y="873.83" width="71.99" height="2.13"/>
      <rect class="st1" x="51.66" y="883.43" width="71.99" height="2.13"/>
      <rect class="st1" x="51.66" y="886.63" width="71.99" height="2.13"/>
      <rect class="st1" x="51.66" y="895.17" width="71.99" height="2.13"/>
      <rect class="st1" x="51.66" y="859.97" width="71.99" height="2.13"/>
      <rect class="st1" x="52.19" y="848.24" width="71.46" height="2.13"/>
      <rect class="st1" x="51.12" y="851.44" width="72.53" height="1.07"/>
      <rect class="st1" x="51.12" y="854.64" width="72.53" height="1.07"/>
      <rect class="st1" x="51.12" y="866.37" width="72.53" height="1.07"/>
      <rect class="st1" x="51.12" y="869.57" width="72.53" height="1.07"/>
      <rect class="st1" x="51.12" y="871.7" width="72.53" height="1.07"/>
      <rect class="st1" x="51.12" y="918.63" width="72.53" height="1.07"/>
      <rect class="st1" x="51.12" y="910.1" width="72.53" height="1.07"/>
      <rect class="st1" x="51.12" y="906.9" width="72.53" height="1.07"/>
      <rect class="st1" x="51.12" y="901.57" width="72.53" height="1.07"/>
      <rect class="st1" x="51.12" y="947.43" width="72.53" height="1.07"/>
      <rect class="st1" x="51.12" y="960.23" width="72.53" height="1.07"/>
      <rect class="st1" x="51.12" y="962.36" width="72.53" height="1.07"/>
      <rect class="st1" x="51.12" y="927.16" width="72.53" height="1.07"/>
      <rect class="st1" x="51.12" y="899.43" width="72.53" height="1.07"/>
      <rect class="st1" x="51.12" y="975.16" width="72.53" height="1.07"/>
      <rect class="st1" x="51.12" y="878.1" width="72.53" height="1.07"/>
      <rect class="st1" x="51.12" y="950.63" width="72.53" height="1.07"/>
    </g>
  </g>
  <path class="st0" d="M102.87,14.23h-34.48c-6.27,0-9.92,7.07-6.3,12.19l15.05,21.23c1.45,2.04,3.8,3.25,6.3,3.25h19.43c10.13,0,18.33-8.21,18.33-18.33h0c0-10.13-8.21-18.33-18.33-18.33Z"/>
  <circle class="st10" cx="101.74" cy="32.69" r="14.35"/>
  <g class="st9">
    <g>
      <path class="st1" d="M73.18,978.69H-29.3v-16.67H12.4v-21.18l-41.7-30.83v-18.04h5.41l45.83,33.83,45.83-33.96h5.41v18.17l-41.7,30.83v21.18h41.7v16.67Z"/>
      <path class="st1" d="M70.48,870.86c-1.8,2.63-4.2,4.74-7.19,6.33-2.99,1.59-6.24,2.38-9.75,2.38H10.27c-3.6,0-6.88-.79-9.82-2.38-2.94-1.59-5.31-3.7-7.12-6.33-1.8-2.63-2.7-5.49-2.7-8.58v-39.22c0-3.17.88-6.08,2.63-8.71,1.76-2.63,4.13-4.72,7.12-6.27,2.99-1.54,6.29-2.32,9.89-2.32h31.03v57.39h11.53c.48,0,.88-.14,1.21-.44.33-.29.5-.65.5-1.06v-55.89h18.65v56.51c0,3.09-.9,5.95-2.7,8.58ZM24.5,863.16v-40.98h-13.52c-.47,0-.88.15-1.21.44-.33.29-.5.65-.5,1.07v37.97c0,.42.17.77.5,1.06.33.29.74.44,1.21.44h13.52Z"/>
      <path class="st1" d="M109.78,782.71h-18.79v-43.73c0-.42-.17-.77-.5-1.07-.33-.29-.74-.44-1.21-.44h-16.11v40.1c0,3.18-.9,6.06-2.7,8.65-1.8,2.59-4.17,4.68-7.12,6.27-2.94,1.59-6.21,2.38-9.82,2.38H-9.09v-16.42h61.92c.48,0,.88-.14,1.21-.44.33-.29.5-.65.5-1.07v-37.97c0-.42-.16-.77-.5-1.07-.33-.29-.73-.44-1.21-.44H-9.09v-16.42h99.23c3.6,0,6.9.75,9.89,2.26,2.99,1.5,5.36,3.57,7.12,6.2,1.75,2.63,2.63,5.54,2.63,8.71v44.48Z"/>
      <path class="st1" d="M70.48,699.57c-1.8,2.63-4.2,4.74-7.19,6.33-2.99,1.59-6.24,2.38-9.75,2.38H-36.56v-16.54H52.83c.48,0,.88-.15,1.21-.44.33-.29.5-.65.5-1.07v-13.91h18.65v14.66c0,3.09-.9,5.95-2.7,8.58Z"/>
      <path class="st1" d="M73.18,649.63c0,3.18-.9,6.08-2.7,8.71-1.8,2.63-4.2,4.72-7.19,6.27-2.99,1.55-6.24,2.32-9.75,2.32h-31.03v-57.39h-11.53c-.47,0-.88.15-1.21.44-.33.29-.5.65-.5,1.06v55.89H-9.37v-56.51c0-3.17.88-6.08,2.63-8.71,1.76-2.63,4.13-4.72,7.12-6.27,2.99-1.54,6.29-2.32,9.89-2.32h62.91v56.51ZM54.54,649.01v-39.47h-15.23v40.98h13.52c.48,0,.88-.14,1.21-.44.33-.29.5-.65.5-1.07Z"/>
      <path class="st1" d="M73.18,581.22H-29.3v-16.42h102.48v16.42Z"/>
      <path class="st1" d="M103.78,542.25h-18.79v-43.73c0-.42-.17-.77-.5-1.07-.33-.29-.74-.44-1.21-.44h-10.11v40.1c0,3.18-.9,6.06-2.7,8.65-1.8,2.59-4.17,4.68-7.12,6.27-2.94,1.59-6.21,2.38-9.82,2.38H-9.09v-16.42h61.92c.48,0,.88-.14,1.21-.44.33-.29.5-.65.5-1.07v-37.97c0-.42-.16-.77-.5-1.07-.33-.29-.73-.44-1.21-.44H-9.09v-16.42h93.23c3.6,0,6.9.75,9.89,2.26,2.99,1.5,5.36,3.57,7.12,6.2,1.75,2.63,2.63,5.54,2.63,8.71v44.48Z"/>
      <path class="st1" d="M73.18,431.22l-82.55,39.97v-18.92l59.92-28.7-59.92-28.57v-18.92l82.55,40.1v15.04Z"/>
    </g>
  </g>
  <g class="st6">
    <path d="M520.71,442.82c-.36,0-.62-.05-.77-.16-.15-.11-.24-.25-.28-.42-.03-.17-.05-.35-.05-.52v-6.2c0-.18.02-.35.05-.52.03-.17.12-.31.28-.41.15-.11.41-.16.78-.16s.63.05.77.16.24.25.27.41c.03.17.05.34.05.53v6.2c0,.18-.02.35-.05.52-.03.17-.12.31-.28.41-.15.11-.41.16-.78.16Z"/>
    <path d="M526.55,442.81c-.26,0-.49-.05-.67-.15-.18-.1-.32-.25-.41-.45l-2.84-6.25c-.15-.35-.19-.63-.11-.83.08-.2.3-.39.67-.57.26-.14.47-.22.65-.22.18,0,.33.05.46.17.13.12.24.3.34.55l1.9,4.67,1.9-4.67c.1-.25.22-.43.35-.55s.28-.18.47-.17.4.08.64.22c.4.19.63.39.7.58.06.2.02.47-.14.82l-2.84,6.25c-.08.18-.21.32-.4.43-.19.11-.4.17-.63.17Z"/>
  </g>
  <text class="st2" transform="translate(118.66 972.88) rotate(-90)"><tspan x="0" y="0">© 2025 Keyla. All rights reserved.</tspan></text>
  <g class="st6">
    <rect class="st7" x="107.07" y="128.53" width="15.82" height="184.82" rx="4.46" ry="4.46"/>
  </g>
  <text class="st3" transform="translate(19.08 97.73)"><tspan x="0" y="0">.....................</tspan><tspan x="0" y="14.4">.....................</tspan><tspan x="0" y="28.8">.....................</tspan><tspan x="0" y="43.2">.....................</tspan><tspan x="0" y="57.6">.....................</tspan><tspan x="0" y="72">.....................</tspan><tspan x="0" y="86.4">.....................</tspan><tspan x="0" y="100.8">.....................</tspan><tspan x="0" y="115.2">.....................</tspan><tspan x="0" y="129.6">.....................</tspan><tspan x="0" y="144">.....................</tspan><tspan x="0" y="158.4">.....................</tspan><tspan x="0" y="172.8">.....................</tspan><tspan x="0" y="187.2">.....................</tspan><tspan x="0" y="201.6">.....................</tspan><tspan x="0" y="216">.....................</tspan><tspan x="0" y="230.4">.....................</tspan></text>
</svg>