<?xml version="1.0" encoding="UTF-8"?>
<svg id="Layer_1" data-name="Layer 1" xmlns="http://www.w3.org/2000/svg" viewBox="0 0 3077.08 1781.86">
  <defs>
    <style>
      .cls-1 {
        font-family: Anton-Regular, Anton;
        font-size: 1170.18px;
      }

      .cls-2 {
        font-family: Orbitron-Black, Orbitron;
        font-size: 264.59px;
        font-variation-settings: 'wght' 900;
        font-weight: 800;
      }

      .cls-3 {
        fill: #efefef;
      }

      .cls-4 {
        fill: #e6e6e6;
      }
    </style>
  </defs>
  <g>
    <g>
      <polygon class="cls-4" points="1 1780.26 0 1779.26 0 49.87 1 48.87 1.1 48.87 2.1 49.87 2.1 1779.26 1.1 1780.26 1 1780.26"/>
      <rect class="cls-4" x="1" y="49.87" width=".1" height="1729.39"/>
      <polygon class="cls-4" points="44.31 1780.26 43.31 1779.26 43.31 49.87 44.31 48.87 44.41 48.87 45.41 49.87 45.41 1779.26 44.41 1780.26 44.31 1780.26"/>
      <rect class="cls-4" x="44.31" y="49.87" width=".1" height="1729.39"/>
      <polygon class="cls-4" points="87.62 1780.26 86.62 1779.26 86.62 49.87 87.62 48.87 87.72 48.87 88.72 49.87 88.72 1779.26 87.72 1780.26 87.62 1780.26"/>
      <rect class="cls-4" x="87.62" y="49.87" width=".1" height="1729.39"/>
      <polygon class="cls-4" points="130.93 1780.26 129.93 1779.26 129.93 49.87 130.93 48.87 131.03 48.87 132.03 49.87 132.03 1779.26 131.03 1780.26 130.93 1780.26"/>
      <rect class="cls-4" x="130.93" y="49.87" width=".1" height="1729.39"/>
      <polygon class="cls-4" points="174.24 1780.26 173.24 1779.26 173.24 49.87 174.24 48.87 174.34 48.87 175.34 49.87 175.34 1779.26 174.34 1780.26 174.24 1780.26"/>
      <rect class="cls-4" x="174.24" y="49.87" width=".1" height="1729.39"/>
      <polygon class="cls-4" points="217.55 1780.26 216.55 1779.26 216.55 49.87 217.55 48.87 217.65 48.87 218.65 49.87 218.65 1779.26 217.65 1780.26 217.55 1780.26"/>
      <rect class="cls-4" x="217.55" y="49.87" width=".1" height="1729.39"/>
      <polygon class="cls-4" points="260.86 1780.26 259.86 1779.26 259.86 49.87 260.86 48.87 260.96 48.87 261.96 49.87 261.96 1779.26 260.96 1780.26 260.86 1780.26"/>
      <rect class="cls-4" x="260.86" y="49.87" width=".1" height="1729.39"/>
      <polygon class="cls-4" points="304.17 1780.26 303.17 1779.26 303.17 49.87 304.17 48.87 304.27 48.87 305.27 49.87 305.27 1779.26 304.27 1780.26 304.17 1780.26"/>
      <rect class="cls-4" x="304.17" y="49.87" width=".1" height="1729.39"/>
      <polygon class="cls-4" points="347.48 1780.26 346.48 1779.26 346.48 49.87 347.48 48.87 347.58 48.87 348.58 49.87 348.58 1779.26 347.58 1780.26 347.48 1780.26"/>
      <rect class="cls-4" x="347.48" y="49.87" width=".1" height="1729.39"/>
      <polygon class="cls-4" points="390.79 1780.26 389.79 1779.26 389.79 49.87 390.79 48.87 390.89 48.87 391.89 49.87 391.89 1779.26 390.89 1780.26 390.79 1780.26"/>
      <rect class="cls-4" x="390.79" y="49.87" width=".1" height="1729.39"/>
      <polygon class="cls-4" points="434.1 1780.26 433.1 1779.26 433.1 49.87 434.1 48.87 434.2 48.87 435.2 49.87 435.2 1779.26 434.2 1780.26 434.1 1780.26"/>
      <rect class="cls-4" x="434.1" y="49.87" width=".1" height="1729.39"/>
      <polygon class="cls-4" points="477.4 1780.26 476.4 1779.26 476.4 49.87 477.4 48.87 477.51 48.87 478.51 49.87 478.51 1779.26 477.51 1780.26 477.4 1780.26"/>
      <rect class="cls-4" x="477.4" y="49.87" width=".1" height="1729.39"/>
      <polygon class="cls-4" points="520.71 1780.26 519.71 1779.26 519.71 49.87 520.71 48.87 520.82 48.87 521.82 49.87 521.82 1779.26 520.82 1780.26 520.71 1780.26"/>
      <rect class="cls-4" x="520.71" y="49.87" width=".1" height="1729.39"/>
      <polygon class="cls-4" points="564.02 1780.26 563.02 1779.26 563.02 49.87 564.02 48.87 564.12 48.87 565.12 49.87 565.12 1779.26 564.12 1780.26 564.02 1780.26"/>
      <rect class="cls-4" x="564.02" y="49.87" width=".1" height="1729.39"/>
      <polygon class="cls-4" points="607.33 1780.26 606.33 1779.26 606.33 49.87 607.33 48.87 607.43 48.87 608.43 49.87 608.43 1779.26 607.43 1780.26 607.33 1780.26"/>
      <rect class="cls-4" x="607.33" y="49.87" width=".1" height="1729.39"/>
      <polygon class="cls-4" points="650.64 1780.26 649.64 1779.26 649.64 49.87 650.64 48.87 650.74 48.87 651.74 49.87 651.74 1779.26 650.74 1780.26 650.64 1780.26"/>
      <rect class="cls-4" x="650.64" y="49.87" width=".1" height="1729.39"/>
      <polygon class="cls-4" points="693.95 1780.26 692.95 1779.26 692.95 49.87 693.95 48.87 694.05 48.87 695.05 49.87 695.05 1779.26 694.05 1780.26 693.95 1780.26"/>
      <rect class="cls-4" x="693.95" y="49.87" width=".1" height="1729.39"/>
      <polygon class="cls-4" points="737.26 1780.26 736.26 1779.26 736.26 49.87 737.26 48.87 737.36 48.87 738.36 49.87 738.36 1779.26 737.36 1780.26 737.26 1780.26"/>
      <rect class="cls-4" x="737.26" y="49.87" width=".1" height="1729.39"/>
      <polygon class="cls-4" points="780.57 1780.26 779.57 1779.26 779.57 49.87 780.57 48.87 780.67 48.87 781.67 49.87 781.67 1779.26 780.67 1780.26 780.57 1780.26"/>
      <rect class="cls-4" x="780.57" y="49.87" width=".1" height="1729.39"/>
      <polygon class="cls-4" points="823.88 1780.26 822.88 1779.26 822.88 49.87 823.88 48.87 823.98 48.87 824.98 49.87 824.98 1779.26 823.98 1780.26 823.88 1780.26"/>
      <rect class="cls-4" x="823.88" y="49.87" width=".1" height="1729.39"/>
      <polygon class="cls-4" points="867.19 1780.26 866.19 1779.26 866.19 49.87 867.19 48.87 867.29 48.87 868.29 49.87 868.29 1779.26 867.29 1780.26 867.19 1780.26"/>
      <rect class="cls-4" x="867.19" y="49.87" width=".1" height="1729.39"/>
      <polygon class="cls-4" points="910.5 1780.26 909.5 1779.26 909.5 49.87 910.5 48.87 910.6 48.87 911.6 49.87 911.6 1779.26 910.6 1780.26 910.5 1780.26"/>
      <rect class="cls-4" x="910.5" y="49.87" width=".1" height="1729.39"/>
      <polygon class="cls-4" points="953.81 1780.26 952.81 1779.26 952.81 49.87 953.81 48.87 953.91 48.87 954.91 49.87 954.91 1779.26 953.91 1780.26 953.81 1780.26"/>
      <rect class="cls-4" x="953.81" y="49.87" width=".1" height="1729.39"/>
      <polygon class="cls-4" points="997.12 1780.26 996.12 1779.26 996.12 49.87 997.12 48.87 997.22 48.87 998.22 49.87 998.22 1779.26 997.22 1780.26 997.12 1780.26"/>
      <rect class="cls-4" x="997.12" y="49.87" width=".1" height="1729.39"/>
      <polygon class="cls-4" points="1040.43 1780.26 1039.43 1779.26 1039.43 49.87 1040.43 48.87 1040.53 48.87 1041.53 49.87 1041.53 1779.26 1040.53 1780.26 1040.43 1780.26"/>
      <rect class="cls-4" x="1040.43" y="49.87" width=".1" height="1729.39"/>
      <polygon class="cls-4" points="1083.74 1780.26 1082.74 1779.26 1082.74 49.87 1083.74 48.87 1083.84 48.87 1084.84 49.87 1084.84 1779.26 1083.84 1780.26 1083.74 1780.26"/>
      <rect class="cls-4" x="1083.74" y="49.87" width=".1" height="1729.39"/>
      <polygon class="cls-4" points="1127.05 1780.26 1126.05 1779.26 1126.05 49.87 1127.05 48.87 1127.15 48.87 1128.15 49.87 1128.15 1779.26 1127.15 1780.26 1127.05 1780.26"/>
      <rect class="cls-4" x="1127.05" y="49.87" width=".1" height="1729.39"/>
      <polygon class="cls-4" points="1170.36 1780.26 1169.36 1779.26 1169.36 49.87 1170.36 48.87 1170.46 48.87 1171.46 49.87 1171.46 1779.26 1170.46 1780.26 1170.36 1780.26"/>
      <rect class="cls-4" x="1170.36" y="49.87" width=".1" height="1729.39"/>
      <polygon class="cls-4" points="1213.67 1780.26 1212.67 1779.26 1212.67 49.87 1213.67 48.87 1213.77 48.87 1214.77 49.87 1214.77 1779.26 1213.77 1780.26 1213.67 1780.26"/>
      <rect class="cls-4" x="1213.67" y="49.87" width=".1" height="1729.39"/>
      <polygon class="cls-4" points="1256.98 1780.26 1255.98 1779.26 1255.98 49.87 1256.98 48.87 1257.08 48.87 1258.08 49.87 1258.08 1779.26 1257.08 1780.26 1256.98 1780.26"/>
      <rect class="cls-4" x="1256.98" y="49.87" width=".1" height="1729.39"/>
      <polygon class="cls-4" points="1300.29 1780.26 1299.29 1779.26 1299.29 49.87 1300.29 48.87 1300.39 48.87 1301.39 49.87 1301.39 1779.26 1300.39 1780.26 1300.29 1780.26"/>
      <rect class="cls-4" x="1300.29" y="49.87" width=".1" height="1729.39"/>
      <polygon class="cls-4" points="1343.6 1780.26 1342.6 1779.26 1342.6 49.87 1343.6 48.87 1343.7 48.87 1344.7 49.87 1344.7 1779.26 1343.7 1780.26 1343.6 1780.26"/>
      <rect class="cls-4" x="1343.6" y="49.87" width=".1" height="1729.39"/>
      <polygon class="cls-4" points="1386.9 1780.26 1385.9 1779.26 1385.9 49.87 1386.9 48.87 1387.01 48.87 1388.01 49.87 1388.01 1779.26 1387.01 1780.26 1386.9 1780.26"/>
      <rect class="cls-4" x="1386.9" y="49.87" width=".1" height="1729.39"/>
      <polygon class="cls-4" points="1430.21 1780.26 1429.21 1779.26 1429.21 49.87 1430.21 48.87 1430.32 48.87 1431.32 49.87 1431.32 1779.26 1430.32 1780.26 1430.21 1780.26"/>
      <rect class="cls-4" x="1430.21" y="49.87" width=".1" height="1729.39"/>
      <polygon class="cls-4" points="1473.52 1780.26 1472.52 1779.26 1472.52 49.87 1473.52 48.87 1473.62 48.87 1474.62 49.87 1474.62 1779.26 1473.62 1780.26 1473.52 1780.26"/>
      <rect class="cls-4" x="1473.52" y="49.87" width=".1" height="1729.39"/>
      <polygon class="cls-4" points="1516.83 1780.26 1515.83 1779.26 1515.83 49.87 1516.83 48.87 1516.93 48.87 1517.93 49.87 1517.93 1779.26 1516.93 1780.26 1516.83 1780.26"/>
      <rect class="cls-4" x="1516.83" y="49.87" width=".1" height="1729.39"/>
      <polygon class="cls-4" points="1560.14 1780.26 1559.14 1779.26 1559.14 49.87 1560.14 48.87 1560.24 48.87 1561.24 49.87 1561.24 1779.26 1560.24 1780.26 1560.14 1780.26"/>
      <rect class="cls-4" x="1560.14" y="49.87" width=".1" height="1729.39"/>
      <polygon class="cls-4" points="1603.45 1780.26 1602.45 1779.26 1602.45 49.87 1603.45 48.87 1603.55 48.87 1604.55 49.87 1604.55 1779.26 1603.55 1780.26 1603.45 1780.26"/>
      <rect class="cls-4" x="1603.45" y="49.87" width=".1" height="1729.39"/>
      <polygon class="cls-4" points="1646.76 1780.26 1645.76 1779.26 1645.76 49.87 1646.76 48.87 1646.86 48.87 1647.86 49.87 1647.86 1779.26 1646.86 1780.26 1646.76 1780.26"/>
      <rect class="cls-4" x="1646.76" y="49.87" width=".1" height="1729.39"/>
      <polygon class="cls-4" points="1690.07 1780.26 1689.07 1779.26 1689.07 49.87 1690.07 48.87 1690.17 48.87 1691.17 49.87 1691.17 1779.26 1690.17 1780.26 1690.07 1780.26"/>
      <rect class="cls-4" x="1690.07" y="49.87" width=".1" height="1729.39"/>
      <polygon class="cls-4" points="1733.38 1780.26 1732.38 1779.26 1732.38 49.87 1733.38 48.87 1733.48 48.87 1734.48 49.87 1734.48 1779.26 1733.48 1780.26 1733.38 1780.26"/>
      <rect class="cls-4" x="1733.38" y="49.87" width=".1" height="1729.39"/>
      <polygon class="cls-4" points="1776.69 1780.26 1775.69 1779.26 1775.69 49.87 1776.69 48.87 1776.79 48.87 1777.79 49.87 1777.79 1779.26 1776.79 1780.26 1776.69 1780.26"/>
      <rect class="cls-4" x="1776.69" y="49.87" width=".1" height="1729.39"/>
      <polygon class="cls-4" points="1820 1780.26 1819 1779.26 1819 49.87 1820 48.87 1820.1 48.87 1821.1 49.87 1821.1 1779.26 1820.1 1780.26 1820 1780.26"/>
      <rect class="cls-4" x="1820" y="49.87" width=".1" height="1729.39"/>
      <polygon class="cls-4" points="1863.31 1780.26 1862.31 1779.26 1862.31 49.87 1863.31 48.87 1863.41 48.87 1864.41 49.87 1864.41 1779.26 1863.41 1780.26 1863.31 1780.26"/>
      <rect class="cls-4" x="1863.31" y="49.87" width=".1" height="1729.39"/>
      <polygon class="cls-4" points="1906.62 1780.26 1905.62 1779.26 1905.62 49.87 1906.62 48.87 1906.72 48.87 1907.72 49.87 1907.72 1779.26 1906.72 1780.26 1906.62 1780.26"/>
      <rect class="cls-4" x="1906.62" y="49.87" width=".1" height="1729.39"/>
      <polygon class="cls-4" points="1949.93 1780.26 1948.93 1779.26 1948.93 49.87 1949.93 48.87 1950.03 48.87 1951.03 49.87 1951.03 1779.26 1950.03 1780.26 1949.93 1780.26"/>
      <rect class="cls-4" x="1949.93" y="49.87" width=".1" height="1729.39"/>
      <polygon class="cls-4" points="1993.24 1780.26 1992.24 1779.26 1992.24 49.87 1993.24 48.87 1993.34 48.87 1994.34 49.87 1994.34 1779.26 1993.34 1780.26 1993.24 1780.26"/>
      <rect class="cls-4" x="1993.24" y="49.87" width=".1" height="1729.39"/>
      <polygon class="cls-4" points="2036.55 1780.26 2035.55 1779.26 2035.55 49.87 2036.55 48.87 2036.65 48.87 2037.65 49.87 2037.65 1779.26 2036.65 1780.26 2036.55 1780.26"/>
      <rect class="cls-4" x="2036.55" y="49.87" width=".1" height="1729.39"/>
      <polygon class="cls-4" points="2079.86 1780.26 2078.86 1779.26 2078.86 49.87 2079.86 48.87 2079.96 48.87 2080.96 49.87 2080.96 1779.26 2079.96 1780.26 2079.86 1780.26"/>
      <rect class="cls-4" x="2079.86" y="49.87" width=".1" height="1729.39"/>
      <polygon class="cls-4" points="2123.17 1780.26 2122.17 1779.26 2122.17 49.87 2123.17 48.87 2123.27 48.87 2124.27 49.87 2124.27 1779.26 2123.27 1780.26 2123.17 1780.26"/>
      <rect class="cls-4" x="2123.17" y="49.87" width=".1" height="1729.39"/>
      <polygon class="cls-4" points="2166.48 1780.26 2165.48 1779.26 2165.48 49.87 2166.48 48.87 2166.58 48.87 2167.58 49.87 2167.58 1779.26 2166.58 1780.26 2166.48 1780.26"/>
      <rect class="cls-4" x="2166.48" y="49.87" width=".1" height="1729.39"/>
      <polygon class="cls-4" points="2209.79 1780.26 2208.79 1779.26 2208.79 49.87 2209.79 48.87 2209.89 48.87 2210.89 49.87 2210.89 1779.26 2209.89 1780.26 2209.79 1780.26"/>
      <rect class="cls-4" x="2209.79" y="49.87" width=".1" height="1729.39"/>
      <polygon class="cls-4" points="2253.1 1780.26 2252.1 1779.26 2252.1 49.87 2253.1 48.87 2253.2 48.87 2254.2 49.87 2254.2 1779.26 2253.2 1780.26 2253.1 1780.26"/>
      <rect class="cls-4" x="2253.1" y="49.87" width=".1" height="1729.39"/>
      <polygon class="cls-4" points="2296.4 1780.26 2295.4 1779.26 2295.4 49.87 2296.4 48.87 2296.51 48.87 2297.51 49.87 2297.51 1779.26 2296.51 1780.26 2296.4 1780.26"/>
      <rect class="cls-4" x="2296.4" y="49.87" width=".1" height="1729.39"/>
      <polygon class="cls-4" points="2339.71 1780.26 2338.71 1779.26 2338.71 49.87 2339.71 48.87 2339.81 48.87 2340.81 49.87 2340.81 1779.26 2339.81 1780.26 2339.71 1780.26"/>
      <rect class="cls-4" x="2339.71" y="49.87" width=".1" height="1729.39"/>
      <polygon class="cls-4" points="2383.02 1780.26 2382.02 1779.26 2382.02 49.87 2383.02 48.87 2383.12 48.87 2384.12 49.87 2384.12 1779.26 2383.12 1780.26 2383.02 1780.26"/>
      <rect class="cls-4" x="2383.02" y="49.87" width=".1" height="1729.39"/>
      <polygon class="cls-4" points="2426.33 1780.26 2425.33 1779.26 2425.33 49.87 2426.33 48.87 2426.43 48.87 2427.43 49.87 2427.43 1779.26 2426.43 1780.26 2426.33 1780.26"/>
      <rect class="cls-4" x="2426.33" y="49.87" width=".1" height="1729.39"/>
      <polygon class="cls-4" points="2469.64 1780.26 2468.64 1779.26 2468.64 49.87 2469.64 48.87 2469.74 48.87 2470.74 49.87 2470.74 1779.26 2469.74 1780.26 2469.64 1780.26"/>
      <rect class="cls-4" x="2469.64" y="49.87" width=".1" height="1729.39"/>
      <polygon class="cls-4" points="2512.95 1780.26 2511.95 1779.26 2511.95 49.87 2512.95 48.87 2513.05 48.87 2514.05 49.87 2514.05 1779.26 2513.05 1780.26 2512.95 1780.26"/>
      <rect class="cls-4" x="2512.95" y="49.87" width=".1" height="1729.39"/>
      <polygon class="cls-4" points="2556.26 1780.26 2555.26 1779.26 2555.26 49.87 2556.26 48.87 2556.36 48.87 2557.36 49.87 2557.36 1779.26 2556.36 1780.26 2556.26 1780.26"/>
      <rect class="cls-4" x="2556.26" y="49.87" width=".1" height="1729.39"/>
      <polygon class="cls-4" points="2599.57 1780.26 2598.57 1779.26 2598.57 49.87 2599.57 48.87 2599.67 48.87 2600.67 49.87 2600.67 1779.26 2599.67 1780.26 2599.57 1780.26"/>
      <rect class="cls-4" x="2599.57" y="49.87" width=".1" height="1729.39"/>
      <polygon class="cls-4" points="2642.88 1780.26 2641.88 1779.26 2641.88 49.87 2642.88 48.87 2642.98 48.87 2643.98 49.87 2643.98 1779.26 2642.98 1780.26 2642.88 1780.26"/>
      <rect class="cls-4" x="2642.88" y="49.87" width=".1" height="1729.39"/>
      <polygon class="cls-4" points="2686.19 1780.26 2685.19 1779.26 2685.19 49.87 2686.19 48.87 2686.29 48.87 2687.29 49.87 2687.29 1779.26 2686.29 1780.26 2686.19 1780.26"/>
      <rect class="cls-4" x="2686.19" y="49.87" width=".1" height="1729.39"/>
      <polygon class="cls-4" points="2729.5 1780.26 2728.5 1779.26 2728.5 49.87 2729.5 48.87 2729.6 48.87 2730.6 49.87 2730.6 1779.26 2729.6 1780.26 2729.5 1780.26"/>
      <rect class="cls-4" x="2729.5" y="49.87" width=".1" height="1729.39"/>
      <polygon class="cls-4" points="2772.81 1780.26 2771.81 1779.26 2771.81 49.87 2772.81 48.87 2772.91 48.87 2773.91 49.87 2773.91 1779.26 2772.91 1780.26 2772.81 1780.26"/>
      <rect class="cls-4" x="2772.81" y="49.87" width=".1" height="1729.39"/>
      <polygon class="cls-4" points="2816.12 1780.26 2815.12 1779.26 2815.12 49.87 2816.12 48.87 2816.22 48.87 2817.22 49.87 2817.22 1779.26 2816.22 1780.26 2816.12 1780.26"/>
      <rect class="cls-4" x="2816.12" y="49.87" width=".1" height="1729.39"/>
      <polygon class="cls-4" points="2859.43 1780.26 2858.43 1779.26 2858.43 49.87 2859.43 48.87 2859.53 48.87 2860.53 49.87 2860.53 1779.26 2859.53 1780.26 2859.43 1780.26"/>
      <rect class="cls-4" x="2859.43" y="49.87" width=".1" height="1729.39"/>
      <polygon class="cls-4" points="2902.74 1780.26 2901.74 1779.26 2901.74 49.87 2902.74 48.87 2902.84 48.87 2903.84 49.87 2903.84 1779.26 2902.84 1780.26 2902.74 1780.26"/>
      <rect class="cls-4" x="2902.74" y="49.87" width=".1" height="1729.39"/>
      <polygon class="cls-4" points="2946.05 1780.26 2945.05 1779.26 2945.05 49.87 2946.05 48.87 2946.15 48.87 2947.15 49.87 2947.15 1779.26 2946.15 1780.26 2946.05 1780.26"/>
      <rect class="cls-4" x="2946.05" y="49.87" width=".1" height="1729.39"/>
      <polygon class="cls-4" points="2989.36 1780.26 2988.36 1779.26 2988.36 49.87 2989.36 48.87 2989.46 48.87 2990.46 49.87 2990.46 1779.26 2989.46 1780.26 2989.36 1780.26"/>
      <rect class="cls-4" x="2989.36" y="49.87" width=".1" height="1729.39"/>
      <polygon class="cls-4" points="3032.67 1780.26 3031.67 1779.26 3031.67 49.87 3032.67 48.87 3032.77 48.87 3033.77 49.87 3033.77 1779.26 3032.77 1780.26 3032.67 1780.26"/>
      <rect class="cls-4" x="3032.67" y="49.87" width=".1" height="1729.39"/>
      <polygon class="cls-4" points="3075.98 1780.26 3074.98 1779.26 3074.98 49.87 3075.98 48.87 3076.08 48.87 3077.08 49.87 3077.08 1779.26 3076.08 1780.26 3075.98 1780.26"/>
      <rect class="cls-4" x="3075.98" y="49.87" width=".1" height="1729.39"/>
    </g>
    <g>
      <polygon class="cls-4" points="1.1 49.48 .1 48.48 .1 48.37 1.1 47.37 3076.03 47.37 3077.03 48.37 3077.03 48.48 3076.03 49.48 1.1 49.48"/>
      <rect class="cls-4" x="1538.51" y="-1489.04" width=".1" height="3074.92" transform="translate(1586.99 -1490.14) rotate(90)"/>
      <polygon class="cls-4" points="1.1 92.79 .1 91.79 .1 91.68 1.1 90.68 3076.03 90.68 3077.03 91.68 3077.03 91.79 3076.03 92.79 1.1 92.79"/>
      <rect class="cls-4" x="1538.51" y="-1445.73" width=".1" height="3074.92" transform="translate(1630.3 -1446.83) rotate(90)"/>
      <polygon class="cls-4" points="1.1 136.09 .1 135.09 .1 134.99 1.1 133.99 3076.03 133.99 3077.03 134.99 3077.03 135.09 3076.03 136.09 1.1 136.09"/>
      <rect class="cls-4" x="1538.51" y="-1402.42" width=".1" height="3074.92" transform="translate(1673.61 -1403.52) rotate(90)"/>
      <polygon class="cls-4" points="1.1 179.4 .1 178.4 .1 178.3 1.1 177.3 3076.03 177.3 3077.03 178.3 3077.03 178.4 3076.03 179.4 1.1 179.4"/>
      <rect class="cls-4" x="1538.51" y="-1359.11" width=".1" height="3074.92" transform="translate(1716.92 -1360.21) rotate(90)"/>
      <polygon class="cls-4" points="1.1 222.71 .1 221.71 .1 221.61 1.1 220.61 3076.03 220.61 3077.03 221.61 3077.03 221.71 3076.03 222.71 1.1 222.71"/>
      <rect class="cls-4" x="1538.51" y="-1315.8" width=".1" height="3074.92" transform="translate(1760.23 -1316.9) rotate(90)"/>
      <polygon class="cls-4" points="1.1 266.02 .1 265.02 .1 264.92 1.1 263.92 3076.03 263.92 3077.03 264.92 3077.03 265.02 3076.03 266.02 1.1 266.02"/>
      <rect class="cls-4" x="1538.51" y="-1272.49" width=".1" height="3074.92" transform="translate(1803.54 -1273.59) rotate(90)"/>
      <polygon class="cls-4" points="1.1 309.33 .1 308.33 .1 308.23 1.1 307.23 3076.03 307.23 3077.03 308.23 3077.03 308.33 3076.03 309.33 1.1 309.33"/>
      <rect class="cls-4" x="1538.51" y="-1229.18" width=".1" height="3074.92" transform="translate(1846.85 -1230.28) rotate(90)"/>
      <polygon class="cls-4" points="1.1 352.64 .1 351.64 .1 351.54 1.1 350.54 3076.03 350.54 3077.03 351.54 3077.03 351.64 3076.03 352.64 1.1 352.64"/>
      <rect class="cls-4" x="1538.51" y="-1185.87" width=".1" height="3074.92" transform="translate(1890.16 -1186.97) rotate(90)"/>
      <polygon class="cls-4" points="1.1 395.95 .1 394.95 .1 394.85 1.1 393.85 3076.03 393.85 3077.03 394.85 3077.03 394.95 3076.03 395.95 1.1 395.95"/>
      <rect class="cls-4" x="1538.51" y="-1142.56" width=".1" height="3074.92" transform="translate(1933.46 -1143.66) rotate(90)"/>
      <polygon class="cls-4" points="1.1 439.26 .1 438.26 .1 438.16 1.1 437.16 3076.03 437.16 3077.03 438.16 3077.03 438.26 3076.03 439.26 1.1 439.26"/>
      <rect class="cls-4" x="1538.51" y="-1099.25" width=".1" height="3074.92" transform="translate(1976.77 -1100.35) rotate(90)"/>
      <polygon class="cls-4" points="1.1 482.57 .1 481.57 .1 481.47 1.1 480.47 3076.03 480.47 3077.03 481.47 3077.03 481.57 3076.03 482.57 1.1 482.57"/>
      <rect class="cls-4" x="1538.51" y="-1055.94" width=".1" height="3074.92" transform="translate(2020.08 -1057.04) rotate(90)"/>
      <polygon class="cls-4" points="1.1 525.88 .1 524.88 .1 524.78 1.1 523.78 3076.03 523.78 3077.03 524.78 3077.03 524.88 3076.03 525.88 1.1 525.88"/>
      <rect class="cls-4" x="1538.51" y="-1012.63" width=".1" height="3074.92" transform="translate(2063.39 -1013.73) rotate(90)"/>
      <polygon class="cls-4" points="1.1 569.19 .1 568.19 .1 568.09 1.1 567.09 3076.03 567.09 3077.03 568.09 3077.03 568.19 3076.03 569.19 1.1 569.19"/>
      <rect class="cls-4" x="1538.51" y="-969.32" width=".1" height="3074.92" transform="translate(2106.7 -970.42) rotate(90)"/>
      <polygon class="cls-4" points="1.1 612.5 .1 611.5 .1 611.4 1.1 610.4 3076.03 610.4 3077.03 611.4 3077.03 611.5 3076.03 612.5 1.1 612.5"/>
      <rect class="cls-4" x="1538.51" y="-926.01" width=".1" height="3074.92" transform="translate(2150.01 -927.12) rotate(90)"/>
      <polygon class="cls-4" points="1.1 655.81 .1 654.81 .1 654.71 1.1 653.71 3076.03 653.71 3077.03 654.71 3077.03 654.81 3076.03 655.81 1.1 655.81"/>
      <rect class="cls-4" x="1538.51" y="-882.7" width=".1" height="3074.92" transform="translate(2193.32 -883.81) rotate(90)"/>
      <polygon class="cls-4" points="1.1 699.12 .1 698.12 .1 698.02 1.1 697.02 3076.03 697.02 3077.03 698.02 3077.03 698.12 3076.03 699.12 1.1 699.12"/>
      <rect class="cls-4" x="1538.51" y="-839.39" width=".1" height="3074.92" transform="translate(2236.63 -840.5) rotate(90)"/>
      <polygon class="cls-4" points="1.1 742.43 .1 741.43 .1 741.33 1.1 740.33 3076.03 740.33 3077.03 741.33 3077.03 741.43 3076.03 742.43 1.1 742.43"/>
      <rect class="cls-4" x="1538.51" y="-796.08" width=".1" height="3074.92" transform="translate(2279.94 -797.19) rotate(90)"/>
      <polygon class="cls-4" points="1.1 785.74 .1 784.74 .1 784.64 1.1 783.64 3076.03 783.64 3077.03 784.64 3077.03 784.74 3076.03 785.74 1.1 785.74"/>
      <rect class="cls-4" x="1538.51" y="-752.78" width=".1" height="3074.92" transform="translate(2323.25 -753.88) rotate(90)"/>
      <polygon class="cls-4" points="1.1 829.05 .1 828.05 .1 827.95 1.1 826.95 3076.03 826.95 3077.03 827.95 3077.03 828.05 3076.03 829.05 1.1 829.05"/>
      <rect class="cls-4" x="1538.51" y="-709.47" width=".1" height="3074.92" transform="translate(2366.56 -710.57) rotate(90)"/>
      <polygon class="cls-4" points="1.1 872.36 .1 871.36 .1 871.25 1.1 870.25 3076.03 870.25 3077.03 871.25 3077.03 871.36 3076.03 872.36 1.1 872.36"/>
      <rect class="cls-4" x="1538.51" y="-666.16" width=".1" height="3074.92" transform="translate(2409.87 -667.26) rotate(90)"/>
      <polygon class="cls-4" points="1.1 915.67 .1 914.67 .1 914.56 1.1 913.56 3076.03 913.56 3077.03 914.56 3077.03 914.67 3076.03 915.67 1.1 915.67"/>
      <rect class="cls-4" x="1538.51" y="-622.85" width=".1" height="3074.92" transform="translate(2453.18 -623.95) rotate(90)"/>
      <polygon class="cls-4" points="1.1 958.98 .1 957.98 .1 957.87 1.1 956.87 3076.03 956.87 3077.03 957.87 3077.03 957.98 3076.03 958.98 1.1 958.98"/>
      <rect class="cls-4" x="1538.51" y="-579.54" width=".1" height="3074.92" transform="translate(2496.49 -580.64) rotate(90)"/>
      <polygon class="cls-4" points="1.1 1002.29 .1 1001.29 .1 1001.18 1.1 1000.18 3076.03 1000.18 3077.03 1001.18 3077.03 1001.29 3076.03 1002.29 1.1 1002.29"/>
      <rect class="cls-4" x="1538.51" y="-536.23" width=".1" height="3074.92" transform="translate(2539.8 -537.33) rotate(90)"/>
      <polygon class="cls-4" points="1.1 1045.59 .1 1044.59 .1 1044.49 1.1 1043.49 3076.03 1043.49 3077.03 1044.49 3077.03 1044.59 3076.03 1045.59 1.1 1045.59"/>
      <rect class="cls-4" x="1538.51" y="-492.92" width=".1" height="3074.92" transform="translate(2583.11 -494.02) rotate(90)"/>
      <polygon class="cls-4" points="1.1 1088.9 .1 1087.9 .1 1087.8 1.1 1086.8 3076.03 1086.8 3077.03 1087.8 3077.03 1087.9 3076.03 1088.9 1.1 1088.9"/>
      <rect class="cls-4" x="1538.51" y="-449.61" width=".1" height="3074.92" transform="translate(2626.42 -450.71) rotate(90)"/>
      <polygon class="cls-4" points="1.1 1132.21 .1 1131.21 .1 1131.11 1.1 1130.11 3076.03 1130.11 3077.03 1131.11 3077.03 1131.21 3076.03 1132.21 1.1 1132.21"/>
      <rect class="cls-4" x="1538.51" y="-406.3" width=".1" height="3074.92" transform="translate(2669.73 -407.4) rotate(90)"/>
      <polygon class="cls-4" points="1.1 1175.52 .1 1174.52 .1 1174.42 1.1 1173.42 3076.03 1173.42 3077.03 1174.42 3077.03 1174.52 3076.03 1175.52 1.1 1175.52"/>
      <rect class="cls-4" x="1538.51" y="-362.99" width=".1" height="3074.92" transform="translate(2713.04 -364.09) rotate(90)"/>
      <polygon class="cls-4" points="1.1 1218.83 .1 1217.83 .1 1217.73 1.1 1216.73 3076.03 1216.73 3077.03 1217.73 3077.03 1217.83 3076.03 1218.83 1.1 1218.83"/>
      <rect class="cls-4" x="1538.51" y="-319.68" width=".1" height="3074.92" transform="translate(2756.35 -320.78) rotate(90)"/>
      <polygon class="cls-4" points="1.1 1262.14 .1 1261.14 .1 1261.04 1.1 1260.04 3076.03 1260.04 3077.03 1261.04 3077.03 1261.14 3076.03 1262.14 1.1 1262.14"/>
      <rect class="cls-4" x="1538.51" y="-276.37" width=".1" height="3074.92" transform="translate(2799.66 -277.47) rotate(90)"/>
      <polygon class="cls-4" points="1.1 1305.45 .1 1304.45 .1 1304.35 1.1 1303.35 3076.03 1303.35 3077.03 1304.35 3077.03 1304.45 3076.03 1305.45 1.1 1305.45"/>
      <rect class="cls-4" x="1538.51" y="-233.06" width=".1" height="3074.92" transform="translate(2842.96 -234.16) rotate(90)"/>
      <polygon class="cls-4" points="1.1 1348.76 .1 1347.76 .1 1347.66 1.1 1346.66 3076.03 1346.66 3077.03 1347.66 3077.03 1347.76 3076.03 1348.76 1.1 1348.76"/>
      <rect class="cls-4" x="1538.51" y="-189.75" width=".1" height="3074.92" transform="translate(2886.27 -190.85) rotate(90)"/>
      <polygon class="cls-4" points="1.1 1392.07 .1 1391.07 .1 1390.97 1.1 1389.97 3076.03 1389.97 3077.03 1390.97 3077.03 1391.07 3076.03 1392.07 1.1 1392.07"/>
      <rect class="cls-4" x="1538.51" y="-146.44" width=".1" height="3074.92" transform="translate(2929.58 -147.54) rotate(90)"/>
      <polygon class="cls-4" points="1.1 1435.38 .1 1434.38 .1 1434.28 1.1 1433.28 3076.03 1433.28 3077.03 1434.28 3077.03 1434.38 3076.03 1435.38 1.1 1435.38"/>
      <rect class="cls-4" x="1538.51" y="-103.13" width=".1" height="3074.92" transform="translate(2972.89 -104.23) rotate(90)"/>
      <polygon class="cls-4" points="1.1 1478.69 .1 1477.69 .1 1477.59 1.1 1476.59 3076.03 1476.59 3077.03 1477.59 3077.03 1477.69 3076.03 1478.69 1.1 1478.69"/>
      <rect class="cls-4" x="1538.51" y="-59.82" width=".1" height="3074.92" transform="translate(3016.2 -60.92) rotate(90)"/>
      <polygon class="cls-4" points="1.1 1522 .1 1521 .1 1520.9 1.1 1519.9 3076.03 1519.9 3077.03 1520.9 3077.03 1521 3076.03 1522 1.1 1522"/>
      <rect class="cls-4" x="1538.51" y="-16.51" width=".1" height="3074.92" transform="translate(3059.51 -17.62) rotate(90)"/>
      <polygon class="cls-4" points="1.1 1565.31 .1 1564.31 .1 1564.21 1.1 1563.21 3076.03 1563.21 3077.03 1564.21 3077.03 1564.31 3076.03 1565.31 1.1 1565.31"/>
      <rect class="cls-4" x="1538.51" y="26.8" width=".1" height="3074.92" transform="translate(3102.82 25.69) rotate(90)"/>
      <polygon class="cls-4" points="1.1 1608.62 .1 1607.62 .1 1607.52 1.1 1606.52 3076.03 1606.52 3077.03 1607.52 3077.03 1607.62 3076.03 1608.62 1.1 1608.62"/>
      <rect class="cls-4" x="1538.51" y="70.11" width=".1" height="3074.92" transform="translate(3146.13 69) rotate(90)"/>
      <polygon class="cls-4" points="1.1 1651.93 .1 1650.93 .1 1650.83 1.1 1649.83 3076.03 1649.83 3077.03 1650.83 3077.03 1650.93 3076.03 1651.93 1.1 1651.93"/>
      <rect class="cls-4" x="1538.51" y="113.42" width=".1" height="3074.92" transform="translate(3189.44 112.31) rotate(90)"/>
      <polygon class="cls-4" points="1.1 1695.24 .1 1694.24 .1 1694.14 1.1 1693.14 3076.03 1693.14 3077.03 1694.14 3077.03 1694.24 3076.03 1695.24 1.1 1695.24"/>
      <rect class="cls-4" x="1538.51" y="156.72" width=".1" height="3074.92" transform="translate(3232.75 155.62) rotate(90)"/>
      <polygon class="cls-4" points="1.1 1738.55 .1 1737.55 .1 1737.45 1.1 1736.45 3076.03 1736.45 3077.03 1737.45 3077.03 1737.55 3076.03 1738.55 1.1 1738.55"/>
      <rect class="cls-4" x="1538.51" y="200.03" width=".1" height="3074.92" transform="translate(3276.06 198.93) rotate(90)"/>
      <polygon class="cls-4" points="1.1 1781.86 .1 1780.86 .1 1780.75 1.1 1779.75 3076.03 1779.75 3077.03 1780.75 3077.03 1780.86 3076.03 1781.86 1.1 1781.86"/>
      <rect class="cls-4" x="1538.51" y="243.34" width=".1" height="3074.92" transform="translate(3319.37 242.24) rotate(90)"/>
    </g>
  </g>
  <path class="cls-4" d="M1384.59,944.61h1159.46v699.6c0,31.81-25.83,57.64-57.64,57.64h-1101.81c-31.81,0-57.64-25.83-57.64-57.64v-641.96c0-31.81,25.83-57.64,57.64-57.64Z"/>
  <text class="cls-2" transform="translate(2134.42 86.42) rotate(90)"><tspan class="cls-4" x="0" y="0">GALL</tspan><tspan class="cls-3" x="853.04" y="0">ERY</tspan></text>
  <text class="cls-1" transform="translate(30.35 1087.9) scale(.23 1)"><tspan class="cls-4" x="0" y="0">GALL</tspan><tspan class="cls-3" x="2065.53" y="0">ERY</tspan></text>
  <rect class="cls-3" x="1366.61" y="984.28" width="132.26" height="132.26" rx="66.13" ry="66.13"/>
</svg>