<?xml version="1.0" encoding="UTF-8"?>
<svg id="Layer_1" xmlns="http://www.w3.org/2000/svg" version="1.1" xmlns:xlink="http://www.w3.org/1999/xlink" viewBox="0 0 147.1 1009.7">
  <!-- Generator: Adobe Illustrator 29.2.0, SVG Export Plug-In . SVG Version: 2.1.0 Build 108)  -->
  <defs>
    <style>
      .st0 {
        fill: #fff;
      }

      .st1, .st2 {
        fill: #262626;
      }

      .st3 {
        fill: none;
      }

      .st4 {
        clip-path: url(#clippath-1);
      }

      .st5, .st2 {
        isolation: isolate;
      }

      .st6 {
        clip-path: url(#clippath-3);
      }

      .st7, .st8 {
        display: none;
      }

      .st9, .st8 {
        fill: #d18d33;
      }

      .st10 {
        clip-path: url(#clippath-2);
      }

      .st11 {
        fill: #0a0a0a;
      }

      .st12 {
        clip-path: url(#clippath);
      }

      .st13 {
        fill: #fbb03b;
      }

      .st2 {
        font-family: ArialMT, Arial;
        font-size: 7.8px;
      }
    </style>
    <clipPath id="clippath">
      <path class="st3" d="M167.5,280.5l-35.7,32.9v-184.8h33.8c3.2,0,5.8,2.6,5.8,5.8v137.3c0,3.4-1.4,6.6-3.9,8.9h0Z"/>
    </clipPath>
    <clipPath id="clippath-1">
      <rect class="st3" x="80.5" y="848" width="29.5" height="131.9"/>
    </clipPath>
    <clipPath id="clippath-2">
      <path class="st3" d="M-8.4,0h118.3c14.9,0,27,12.1,27,27v955.7c0,14.9-12.1,27-27,27H-8.4V0Z"/>
    </clipPath>
    <clipPath id="clippath-3">
      <rect class="st3" x="-43.7" y="90.3" width="164.9" height="259.5"/>
    </clipPath>
  </defs>
  <g class="st7">
    <path class="st13" d="M167.5,280.5l-35.7,32.9v-184.8h33.8c3.2,0,5.8,2.6,5.8,5.8v137.3c0,3.4-1.4,6.6-3.9,8.9h0Z"/>
    <g class="st12">
      <path class="st9" d="M137.2,128.4h-13.5v192.6l10.3-9c3.8-3.3,5.9-8.1,5.9-13.1v-167.7c0-1.5-1.2-2.7-2.7-2.7h0Z"/>
    </g>
  </g>
  <path class="st11" d="M109.9,1009.7H-68.5V-68.6h205.4V982.7c0,14.9-12.1,27-27,27h0Z"/>
  <g class="st4">
    <g>
      <path class="st1" d="M123.7,889.8v4.3H51.7c.8-1.3.8-3,0-4.3h72Z"/>
      <path class="st1" d="M123.7,942.1v4.3H51.7c.8-1.3.8-3,0-4.3h72Z"/>
      <path class="st1" d="M123.7,936.8v4.3H51.7c.8-1.3.8-3,0-4.3h72Z"/>
      <path class="st1" d="M123.7,970.9v3.2H51.7c.8-1.1.8-2.1,0-3.2h72Z"/>
      <rect class="st1" x="51.7" y="912.2" width="72" height="2.1"/>
      <rect class="st1" x="51.7" y="924" width="72" height="2.1"/>
      <rect class="st1" x="51.7" y="930.4" width="72" height="2.1"/>
      <rect class="st1" x="51.7" y="933.6" width="72" height="2.1"/>
      <rect class="st1" x="51.7" y="953.8" width="72" height="2.1"/>
      <rect class="st1" x="51.7" y="977.3" width="72" height="2.1"/>
      <rect class="st1" x="51.7" y="965.6" width="72" height="2.1"/>
      <rect class="st1" x="51.7" y="873.8" width="72" height="2.1"/>
      <rect class="st1" x="51.7" y="883.4" width="72" height="2.1"/>
      <rect class="st1" x="51.7" y="886.6" width="72" height="2.1"/>
      <rect class="st1" x="51.7" y="895.2" width="72" height="2.1"/>
      <rect class="st1" x="51.7" y="860" width="72" height="2.1"/>
      <rect class="st1" x="52.2" y="848.2" width="71.5" height="2.1"/>
      <rect class="st1" x="51.1" y="851.4" width="72.5" height="1.1"/>
      <rect class="st1" x="51.1" y="854.6" width="72.5" height="1.1"/>
      <rect class="st1" x="51.1" y="866.4" width="72.5" height="1.1"/>
      <rect class="st1" x="51.1" y="869.6" width="72.5" height="1.1"/>
      <rect class="st1" x="51.1" y="871.7" width="72.5" height="1.1"/>
      <rect class="st1" x="51.1" y="918.6" width="72.5" height="1.1"/>
      <rect class="st1" x="51.1" y="910.1" width="72.5" height="1.1"/>
      <rect class="st1" x="51.1" y="906.9" width="72.5" height="1.1"/>
      <rect class="st1" x="51.1" y="901.6" width="72.5" height="1.1"/>
      <rect class="st1" x="51.1" y="947.4" width="72.5" height="1.1"/>
      <rect class="st1" x="51.1" y="960.2" width="72.5" height="1.1"/>
      <rect class="st1" x="51.1" y="962.4" width="72.5" height="1.1"/>
      <rect class="st1" x="51.1" y="927.2" width="72.5" height="1.1"/>
      <rect class="st1" x="51.1" y="899.4" width="72.5" height="1.1"/>
      <rect class="st1" x="51.1" y="975.2" width="72.5" height="1.1"/>
      <rect class="st1" x="51.1" y="878.1" width="72.5" height="1.1"/>
      <rect class="st1" x="51.1" y="950.6" width="72.5" height="1.1"/>
    </g>
  </g>
  <path class="st0" d="M102.9,14.2h-34.5c-6.3,0-9.9,7.1-6.3,12.2l15,21.2c1.4,2,3.8,3.2,6.3,3.2h19.4c10.1,0,18.3-8.2,18.3-18.3h0c0-10.1-8.2-18.3-18.3-18.3h0Z"/>
  <circle class="st11" cx="101.7" cy="32.7" r="14.4"/>
  <g class="st10">
    <g>
      <path class="st1" d="M73.2,978.7H-29.3v-16.7H12.4v-21.2l-41.7-30.8v-18h5.4l45.8,33.8,45.8-34h5.4v18.2l-41.7,30.8v21.2h41.7s0,16.7,0,16.7Z"/>
      <path class="st1" d="M70.5,870.9c-1.8,2.6-4.2,4.7-7.2,6.3s-6.2,2.4-9.8,2.4H10.3c-3.6,0-6.9-.8-9.8-2.4-2.9-1.6-5.3-3.7-7.1-6.3-1.8-2.6-2.7-5.5-2.7-8.6v-39.2c0-3.2.9-6.1,2.6-8.7,1.8-2.6,4.1-4.7,7.1-6.3,3-1.5,6.3-2.3,9.9-2.3h31v57.4h11.5c.5,0,.9-.1,1.2-.4.3-.3.5-.7.5-1.1v-55.9h18.7v56.5c0,3.1-.9,6-2.7,8.6h0ZM24.5,863.2v-41h-13.5c-.5,0-.9.2-1.2.4s-.5.7-.5,1.1v38c0,.4.2.8.5,1.1s.7.4,1.2.4h13.5Z"/>
      <path class="st1" d="M109.8,834.3h-18.8v-95.3c0-.4-.2-.8-.5-1.1-.3-.3-.7-.4-1.2-.4h-16.1v40.1c0,3.2-.9,6.1-2.7,8.7-1.8,2.6-4.2,4.7-7.1,6.3-2.9,1.6-6.2,2.4-9.8,2.4H-9.1v-16.4h61.9c.5,0,.9-.1,1.2-.4.3-.3.5-.7.5-1.1v-38c0-.4-.2-.8-.5-1.1-.3-.3-.7-.4-1.2-.4H-9.1v-16.4h99.2c3.6,0,6.9.8,9.9,2.3,3,1.5,5.4,3.6,7.1,6.2,1.8,2.6,2.6,5.5,2.6,8.7v96Z"/>
      <path class="st1" d="M70.5,699.6c-1.8,2.6-4.2,4.7-7.2,6.3s-6.2,2.4-9.8,2.4H-36.6v-16.5H52.8c.5,0,.9-.2,1.2-.4.3-.3.5-.7.5-1.1v-13.9h18.7v14.7c0,3.1-.9,6-2.7,8.6h0Z"/>
      <path class="st1" d="M73.2,649.6c0,3.2-.9,6.1-2.7,8.7-1.8,2.6-4.2,4.7-7.2,6.3-3,1.5-6.2,2.3-9.8,2.3h-31v-57.4h-11.5c-.5,0-.9.2-1.2.4s-.5.7-.5,1.1v55.9H-9.4v-56.5c0-3.2.9-6.1,2.6-8.7,1.8-2.6,4.1-4.7,7.1-6.3,3-1.5,6.3-2.3,9.9-2.3h62.9v56.5ZM54.5,649v-39.5h-15.2v41h13.5c.5,0,.9-.1,1.2-.4.3-.3.5-.7.5-1.1Z"/>
      <path class="st1" d="M73.2,581.2H-29.3v-16.4h102.5s0,16.4,0,16.4Z"/>
      <path class="st1" d="M109.8,708.3h-18.8v-209.8c0-.4-.2-.8-.5-1.1-.3-.3-.7-.4-1.2-.4h-16.1v40.1c0,3.2-.9,6.1-2.7,8.7-1.8,2.6-4.2,4.7-7.1,6.3-2.9,1.6-6.2,2.4-9.8,2.4H-9.1v-16.4h61.9c.5,0,.9-.1,1.2-.4.3-.3.5-.7.5-1.1v-38c0-.4-.2-.8-.5-1.1-.3-.3-.7-.4-1.2-.4H-9.1v-16.4h99.2c3.6,0,6.9.8,9.9,2.3,3,1.5,5.4,3.6,7.1,6.2,1.8,2.6,2.6,5.5,2.6,8.7v210.5Z"/>
      <path class="st1" d="M73.2,431.2l-82.6,40v-18.9l59.9-28.7-59.9-28.6v-18.9l82.6,40.1v15h0Z"/>
    </g>
  </g>
  <g class="st7">
    <path d="M520.7,442.8c-.4,0-.6,0-.8-.2-.2-.1-.2-.2-.3-.4,0-.2,0-.4,0-.5v-6.2c0-.2,0-.4,0-.5,0-.2.1-.3.3-.4.2-.1.4-.2.8-.2s.6,0,.8.2.2.2.3.4c0,.2,0,.3,0,.5v6.2c0,.2,0,.4,0,.5,0,.2-.1.3-.3.4-.2.1-.4.2-.8.2h0Z"/>
    <path d="M526.5,442.8c-.3,0-.5,0-.7-.1s-.3-.2-.4-.5l-2.8-6.2c-.2-.4-.2-.6-.1-.8,0-.2.3-.4.7-.6.3-.1.5-.2.7-.2s.3,0,.5.2c.1.1.2.3.3.5l1.9,4.7,1.9-4.7c0-.2.2-.4.3-.5s.3-.2.5-.2.4,0,.6.2c.4.2.6.4.7.6,0,.2,0,.5-.1.8l-2.8,6.2c0,.2-.2.3-.4.4s-.4.2-.6.2h0Z"/>
  </g>
  <g class="st5">
    <g class="st5">
      <text class="st2" transform="translate(118.7 972.9) rotate(-90)"><tspan x="0" y="0">© 2025 Keyla. All rights reserved.</tspan></text>
    </g>
  </g>
  <g class="st7">
    <rect class="st8" x="107.1" y="128.5" width="15.8" height="184.8" rx="4.5" ry="4.5"/>
  </g>
  <g>
    <path class="st0" d="M98.2,40.8v-14.7c0-.4.3-.7.7-.7h1c.4,0,.7.3.7.7v9.3c0,.3.4.5.6.2l3.3-3.3c.2-.2,0-.6-.2-.6h-1.5v-1.6c0-.4.3-.8.8-.8h6c.5,0,.7.6.4.9l-10.9,10.9c-.3.3-.9,0-.9-.4h0Z"/>
    <path class="st0" d="M95.7,29.6l-.8,1.4c-.2.3,0,.8.4.8h1.3c.3,0,.5-.2.5-.5v-1.9s-1,0-1,0c-.2,0-.4.1-.4.3h0Z"/>
  </g>
  <g class="st6">
    <g>
      <polygon class="st1" points="132.5 94.1 132.5 96.2 -54.9 -50.3 -54.9 -52.4 132.5 94.1"/>
      <polygon class="st1" points="132.5 104.3 132.5 106.4 -54.9 -40.1 -54.9 -42.1 132.5 104.3"/>
      <polygon class="st1" points="132.5 114.6 132.5 116.7 -54.9 -29.8 -54.9 -31.9 132.5 114.6"/>
      <polygon class="st1" points="132.5 124.8 132.5 126.9 -54.9 -19.6 -54.9 -21.6 132.5 124.8"/>
      <polygon class="st1" points="132.5 135.1 132.5 137.1 -54.9 -9.3 -54.9 -11.4 132.5 135.1"/>
      <polygon class="st1" points="132.5 145.3 132.5 147.4 -54.9 .9 -54.9 -1.1 132.5 145.3"/>
      <polygon class="st1" points="132.5 155.6 132.5 157.6 -54.9 11.2 -54.9 9.1 132.5 155.6"/>
      <polygon class="st1" points="132.5 165.8 132.5 167.9 -54.9 21.4 -54.9 19.4 132.5 165.8"/>
      <polygon class="st1" points="132.5 176.1 132.5 178.1 -54.9 31.6 -54.9 29.6 132.5 176.1"/>
      <polygon class="st1" points="132.5 186.3 132.5 188.4 -54.9 41.9 -54.9 39.8 132.5 186.3"/>
      <polygon class="st1" points="132.5 196.6 132.5 198.6 -54.9 52.1 -54.9 50.1 132.5 196.6"/>
      <polygon class="st1" points="132.5 206.8 132.5 208.9 -54.9 62.4 -54.9 60.3 132.5 206.8"/>
      <polygon class="st1" points="132.5 217.1 132.5 219.1 -54.9 72.6 -54.9 70.6 132.5 217.1"/>
      <polygon class="st1" points="132.5 227.3 132.5 229.4 -54.9 82.9 -54.9 80.8 132.5 227.3"/>
      <polygon class="st1" points="132.5 237.6 132.5 239.6 -54.9 93.1 -54.9 91.1 132.5 237.6"/>
      <polygon class="st1" points="132.5 247.8 132.5 249.9 -54.9 103.4 -54.9 101.3 132.5 247.8"/>
      <polygon class="st1" points="132.5 258 132.5 260.1 -54.9 113.6 -54.9 111.6 132.5 258"/>
      <polygon class="st1" points="132.5 268.3 132.5 270.4 -54.9 123.9 -54.9 121.8 132.5 268.3"/>
      <polygon class="st1" points="132.5 278.5 132.5 280.6 -54.9 134.1 -54.9 132.1 132.5 278.5"/>
      <polygon class="st1" points="132.5 288.8 132.5 290.9 -54.9 144.4 -54.9 142.3 132.5 288.8"/>
      <polygon class="st1" points="132.5 299 132.5 301.1 -54.9 154.6 -54.9 152.6 132.5 299"/>
      <polygon class="st1" points="132.5 309.3 132.5 311.3 -54.9 164.9 -54.9 162.8 132.5 309.3"/>
      <polygon class="st1" points="132.5 319.5 132.5 321.6 -54.9 175.1 -54.9 173.1 132.5 319.5"/>
      <polygon class="st1" points="132.5 329.8 132.5 331.8 -54.9 185.4 -54.9 183.3 132.5 329.8"/>
      <polygon class="st1" points="132.5 340 132.5 342.1 -54.9 195.6 -54.9 193.5 132.5 340"/>
      <polygon class="st1" points="132.5 350.3 132.5 352.3 -54.9 205.8 -54.9 203.8 132.5 350.3"/>
      <polygon class="st1" points="132.5 360.5 132.5 362.6 -54.9 216.1 -54.9 214 132.5 360.5"/>
      <polygon class="st1" points="132.5 370.8 132.5 372.8 -54.9 226.3 -54.9 224.3 132.5 370.8"/>
      <polygon class="st1" points="132.5 381 132.5 383.1 -54.9 236.6 -54.9 234.5 132.5 381"/>
      <polygon class="st1" points="132.5 391.3 132.5 393.3 -54.9 246.8 -54.9 244.8 132.5 391.3"/>
      <polygon class="st1" points="132.5 401.5 132.5 403.6 -54.9 257.1 -54.9 255 132.5 401.5"/>
      <polygon class="st1" points="132.5 411.8 132.5 413.8 -54.9 267.3 -54.9 265.3 132.5 411.8"/>
      <polygon class="st1" points="132.5 422 132.5 424.1 -54.9 277.6 -54.9 275.5 132.5 422"/>
      <polygon class="st1" points="132.5 432.2 132.5 434.3 -54.9 287.8 -54.9 285.8 132.5 432.2"/>
      <polygon class="st1" points="132.5 442.5 132.5 444.5 -54.9 298.1 -54.9 296 132.5 442.5"/>
      <polygon class="st1" points="132.5 452.7 132.5 454.8 -54.9 308.3 -54.9 306.2 132.5 452.7"/>
      <polygon class="st1" points="132.5 463 132.5 465 -54.9 318.6 -54.9 316.5 132.5 463"/>
      <polygon class="st1" points="132.5 473.2 132.5 475.3 -54.9 328.8 -54.9 326.8 132.5 473.2"/>
      <polygon class="st1" points="132.5 483.5 132.5 485.5 -54.9 339 -54.9 337 132.5 483.5"/>
      <polygon class="st1" points="132.5 493.7 132.5 495.8 -54.9 349.3 -54.9 347.2 132.5 493.7"/>
      <polygon class="st1" points="132.5 504 132.5 506 -54.9 359.5 -54.9 357.5 132.5 504"/>
    </g>
  </g>
</svg>