<?xml version="1.0" encoding="UTF-8"?>
<svg id="Layer_1" data-name="Layer 1" xmlns="http://www.w3.org/2000/svg" viewBox="0 0 129.93 130.02">
  <defs>
    <style>
      .cls-1 {
        fill: #0a0a0a;
      }
    </style>
  </defs>
  <path class="cls-1" d="M31.53,128V4.08c0-2.25,1.82-4.08,4.08-4.08h10.9c2.25,0,4.08,1.82,4.08,4.08v77.93c0,1.8,2.17,2.7,3.44,1.43l29.32-29.32c1.27-1.27.37-3.44-1.43-3.44h-19.74v-14.97c0-2.25,1.82-4.08,4.08-4.08h61.65c1.8,0,2.7,2.17,1.43,3.44l-94.36,94.36c-1.27,1.27-3.44.37-3.44-1.43Z"/>
  <path class="cls-1" d="M8.38,33.08L.25,47.93c-.74,1.34.24,2.98,1.77,2.98h13.7c2.24,0,4.05-1.8,4.08-4.04l.14-15.25h-9.08c-1.03,0-1.98.56-2.47,1.46Z"/>
</svg>