<?xml version="1.0" encoding="UTF-8"?>
<svg id="Layer_1" xmlns="http://www.w3.org/2000/svg" version="1.1" xmlns:xlink="http://www.w3.org/1999/xlink" viewBox="0 0 1179 89.23">
  <!-- Generator: Adobe Illustrator 29.2.0, SVG Export Plug-In . SVG Version: 2.1.0 Build 108)  -->
  <defs>
    <style>
      .st0, .st1 {
        fill: #fff;
      }

      .st2, .st3, .st4 {
        fill: #262626;
      }

      .st5 {
        fill: none;
      }

      .st1, .st4 {
        display: none;
      }

      .st6 {
        clip-path: url(#clippath-1);
      }

      .st3 {
        font-family: ArialMT, Arial;
        font-size: 10.07px;
      }

      .st7 {
        clip-path: url(#clippath-2);
      }

      .st8 {
        fill: #0a0a0a;
      }

      .st9 {
        clip-path: url(#clippath);
      }
    </style>
    <clipPath id="clippath">
      <rect class="st5" x="-255.77" y="-144.96" width="1690.53" height="230.67"/>
    </clipPath>
    <clipPath id="clippath-1">
      <rect class="st5" x="1058.99" y="-47.67" width="37.99" height="169.91" transform="translate(1115.26 -1040.7) rotate(90)"/>
    </clipPath>
    <clipPath id="clippath-2">
      <rect class="st5" x=".56" width="1177.87" height="85.71"/>
    </clipPath>
  </defs>
  <rect class="st8" x="-255.77" y="-144.96" width="1690.53" height="230.67"/>
  <g class="st9">
    <g>
      <polygon class="st2" points="-398.33 122.39 -400.38 122.39 -253.9 -65 -251.84 -65 -398.33 122.39"/>
      <polygon class="st2" points="-389.64 122.39 -391.7 122.39 -245.21 -65 -243.16 -65 -389.64 122.39"/>
      <polygon class="st2" points="-380.96 122.39 -383.02 122.39 -236.53 -65 -234.47 -65 -380.96 122.39"/>
      <polygon class="st2" points="-372.27 122.39 -374.33 122.39 -227.85 -65 -225.79 -65 -372.27 122.39"/>
      <polygon class="st2" points="-363.59 122.39 -365.65 122.39 -219.16 -65 -217.1 -65 -363.59 122.39"/>
      <polygon class="st2" points="-354.91 122.39 -356.96 122.39 -210.48 -65 -208.42 -65 -354.91 122.39"/>
      <polygon class="st2" points="-346.22 122.39 -348.28 122.39 -201.79 -65 -199.74 -65 -346.22 122.39"/>
      <polygon class="st2" points="-337.54 122.39 -339.59 122.39 -193.11 -65 -191.05 -65 -337.54 122.39"/>
      <polygon class="st2" points="-328.85 122.39 -330.91 122.39 -184.42 -65 -182.37 -65 -328.85 122.39"/>
      <polygon class="st2" points="-320.17 122.39 -322.23 122.39 -175.74 -65 -173.68 -65 -320.17 122.39"/>
      <polygon class="st2" points="-311.48 122.39 -313.54 122.39 -167.06 -65 -165 -65 -311.48 122.39"/>
      <polygon class="st2" points="-302.8 122.39 -304.86 122.39 -158.37 -65 -156.32 -65 -302.8 122.39"/>
      <polygon class="st2" points="-294.12 122.39 -296.17 122.39 -149.69 -65 -147.63 -65 -294.12 122.39"/>
      <polygon class="st2" points="-285.43 122.39 -287.49 122.39 -141 -65 -138.95 -65 -285.43 122.39"/>
      <polygon class="st2" points="-276.75 122.39 -278.81 122.39 -132.32 -65 -130.26 -65 -276.75 122.39"/>
      <polygon class="st2" points="-268.06 122.39 -270.12 122.39 -123.64 -65 -121.58 -65 -268.06 122.39"/>
      <polygon class="st2" points="-259.38 122.39 -261.44 122.39 -114.95 -65 -112.89 -65 -259.38 122.39"/>
      <polygon class="st2" points="-250.7 122.39 -252.75 122.39 -106.27 -65 -104.21 -65 -250.7 122.39"/>
      <polygon class="st2" points="-242.01 122.39 -244.07 122.39 -97.58 -65 -95.53 -65 -242.01 122.39"/>
      <polygon class="st2" points="-233.33 122.39 -235.38 122.39 -88.9 -65 -86.84 -65 -233.33 122.39"/>
      <polygon class="st2" points="-224.64 122.39 -226.7 122.39 -80.21 -65 -78.16 -65 -224.64 122.39"/>
      <polygon class="st2" points="-215.96 122.39 -218.02 122.39 -71.53 -65 -69.47 -65 -215.96 122.39"/>
      <polygon class="st2" points="-207.27 122.39 -209.33 122.39 -62.85 -65 -60.79 -65 -207.27 122.39"/>
      <polygon class="st2" points="-198.59 122.39 -200.65 122.39 -54.16 -65 -52.11 -65 -198.59 122.39"/>
      <polygon class="st2" points="-189.91 122.39 -191.96 122.39 -45.48 -65 -43.42 -65 -189.91 122.39"/>
      <polygon class="st2" points="-181.22 122.39 -183.28 122.39 -36.79 -65 -34.74 -65 -181.22 122.39"/>
      <polygon class="st2" points="-172.54 122.39 -174.59 122.39 -28.11 -65 -26.05 -65 -172.54 122.39"/>
      <polygon class="st2" points="-163.85 122.39 -165.91 122.39 -19.43 -65 -17.37 -65 -163.85 122.39"/>
      <polygon class="st2" points="-155.17 122.39 -157.23 122.39 -10.74 -65 -8.68 -65 -155.17 122.39"/>
      <polygon class="st2" points="-146.49 122.39 -148.54 122.39 -2.06 -65 0 -65 -146.49 122.39"/>
    </g>
    <g>
      <polygon class="st2" points="1181.06 122.39 1179 122.39 1325.49 -65 1327.54 -65 1181.06 122.39"/>
      <polygon class="st2" points="1189.74 122.39 1187.68 122.39 1334.17 -65 1336.23 -65 1189.74 122.39"/>
      <polygon class="st2" points="1198.43 122.39 1196.37 122.39 1342.85 -65 1344.91 -65 1198.43 122.39"/>
      <polygon class="st2" points="1207.11 122.39 1205.05 122.39 1351.54 -65 1353.59 -65 1207.11 122.39"/>
      <polygon class="st2" points="1215.79 122.39 1213.74 122.39 1360.22 -65 1362.28 -65 1215.79 122.39"/>
      <polygon class="st2" points="1224.48 122.39 1222.42 122.39 1368.91 -65 1370.96 -65 1224.48 122.39"/>
      <polygon class="st2" points="1233.16 122.39 1231.11 122.39 1377.59 -65 1379.65 -65 1233.16 122.39"/>
      <polygon class="st2" points="1241.85 122.39 1239.79 122.39 1386.27 -65 1388.33 -65 1241.85 122.39"/>
      <polygon class="st2" points="1250.53 122.39 1248.47 122.39 1394.96 -65 1397.02 -65 1250.53 122.39"/>
      <polygon class="st2" points="1259.21 122.39 1257.16 122.39 1403.64 -65 1405.7 -65 1259.21 122.39"/>
      <polygon class="st2" points="1267.9 122.39 1265.84 122.39 1412.33 -65 1414.38 -65 1267.9 122.39"/>
      <polygon class="st2" points="1276.58 122.39 1274.53 122.39 1421.01 -65 1423.07 -65 1276.58 122.39"/>
      <polygon class="st2" points="1285.27 122.39 1283.21 122.39 1429.7 -65 1431.75 -65 1285.27 122.39"/>
      <polygon class="st2" points="1293.95 122.39 1291.89 122.39 1438.38 -65 1440.44 -65 1293.95 122.39"/>
      <polygon class="st2" points="1302.64 122.39 1300.58 122.39 1447.06 -65 1449.12 -65 1302.64 122.39"/>
      <polygon class="st2" points="1311.32 122.39 1309.26 122.39 1455.75 -65 1457.81 -65 1311.32 122.39"/>
      <polygon class="st2" points="1320 122.39 1317.95 122.39 1464.43 -65 1466.49 -65 1320 122.39"/>
      <polygon class="st2" points="1328.69 122.39 1326.63 122.39 1473.12 -65 1475.17 -65 1328.69 122.39"/>
      <polygon class="st2" points="1337.37 122.39 1335.32 122.39 1481.8 -65 1483.86 -65 1337.37 122.39"/>
      <polygon class="st2" points="1346.06 122.39 1344 122.39 1490.48 -65 1492.54 -65 1346.06 122.39"/>
      <polygon class="st2" points="1354.74 122.39 1352.68 122.39 1499.17 -65 1501.23 -65 1354.74 122.39"/>
      <polygon class="st2" points="1363.42 122.39 1361.37 122.39 1507.85 -65 1509.91 -65 1363.42 122.39"/>
      <polygon class="st2" points="1372.11 122.39 1370.05 122.39 1516.54 -65 1518.59 -65 1372.11 122.39"/>
      <polygon class="st2" points="1380.79 122.39 1378.74 122.39 1525.22 -65 1527.28 -65 1380.79 122.39"/>
      <polygon class="st2" points="1389.48 122.39 1387.42 122.39 1533.91 -65 1535.96 -65 1389.48 122.39"/>
      <polygon class="st2" points="1398.16 122.39 1396.1 122.39 1542.59 -65 1544.65 -65 1398.16 122.39"/>
      <polygon class="st2" points="1406.85 122.39 1404.79 122.39 1551.27 -65 1553.33 -65 1406.85 122.39"/>
      <polygon class="st2" points="1415.53 122.39 1413.47 122.39 1559.96 -65 1562.02 -65 1415.53 122.39"/>
      <polygon class="st2" points="1424.21 122.39 1422.16 122.39 1568.64 -65 1570.7 -65 1424.21 122.39"/>
      <polygon class="st2" points="1432.9 122.39 1430.84 122.39 1577.33 -65 1579.38 -65 1432.9 122.39"/>
    </g>
  </g>
  <rect class="st2" x="-255.77" y="-144.96" width="1690.53" height="98.24"/>
  <g>
    <g class="st6">
      <g>
        <path class="st2" d="M1109.05,73.86h-5.5V-18.88c1.63,1.03,3.86,1.03,5.5,0v92.73Z"/>
        <path class="st2" d="M1041.74,73.86h-5.5V-18.88c1.63,1.03,3.86,1.03,5.5,0v92.73Z"/>
        <path class="st2" d="M1048.61,73.86h-5.5V-18.88c1.63,1.03,3.86,1.03,5.5,0v92.73Z"/>
        <path class="st2" d="M1004.64,73.86h-4.12V-18.88c1.47.99,2.67.97,4.12,0v92.73Z"/>
        <rect class="st2" x="1077.46" y="-18.88" width="2.75" height="92.73"/>
        <rect class="st2" x="1062.34" y="-18.88" width="2.75" height="92.73"/>
        <rect class="st2" x="1054.1" y="-18.88" width="2.75" height="92.73"/>
        <rect class="st2" x="1049.98" y="-18.88" width="2.75" height="92.73"/>
        <rect class="st2" x="1023.88" y="-18.88" width="2.75" height="92.73"/>
        <rect class="st2" x="993.65" y="-18.88" width="2.75" height="92.73"/>
        <rect class="st2" x="1008.76" y="-18.88" width="2.75" height="92.73"/>
        <rect class="st2" x="1126.91" y="-18.88" width="2.75" height="92.73"/>
        <rect class="st2" x="1114.55" y="-18.88" width="2.75" height="92.73"/>
        <rect class="st2" x="1110.43" y="-18.88" width="2.75" height="92.73"/>
        <rect class="st2" x="1099.44" y="-18.88" width="2.75" height="92.73"/>
        <rect class="st2" x="1144.77" y="-18.88" width="2.75" height="92.73"/>
        <rect class="st2" x="1159.89" y="-18.19" width="2.75" height="92.05"/>
        <rect class="st2" x="1157.14" y="-19.56" width="1.37" height="93.42"/>
        <rect class="st2" x="1153.02" y="-19.56" width="1.37" height="93.42"/>
        <rect class="st2" x="1137.9" y="-19.56" width="1.37" height="93.42"/>
        <rect class="st2" x="1133.78" y="-19.56" width="1.37" height="93.42"/>
        <rect class="st2" x="1131.04" y="-19.56" width="1.37" height="93.42"/>
        <rect class="st2" x="1070.59" y="-19.56" width="1.37" height="93.42"/>
        <rect class="st2" x="1081.58" y="-19.56" width="1.37" height="93.42"/>
        <rect class="st2" x="1085.7" y="-19.56" width="1.37" height="93.42"/>
        <rect class="st2" x="1092.57" y="-19.56" width="1.37" height="93.42"/>
        <rect class="st2" x="1033.49" y="-19.56" width="1.37" height="93.42"/>
        <rect class="st2" x="1017.01" y="-19.56" width="1.37" height="93.42"/>
        <rect class="st2" x="1014.26" y="-19.56" width="1.37" height="93.42"/>
        <rect class="st2" x="1059.6" y="-19.56" width="1.37" height="93.42"/>
        <rect class="st2" x="1095.32" y="-19.56" width="1.37" height="93.42"/>
        <rect class="st2" x="997.77" y="-19.56" width="1.37" height="93.42"/>
        <rect class="st2" x="1122.79" y="-19.56" width="1.37" height="93.42"/>
        <rect class="st2" x="1029.37" y="-19.56" width="1.37" height="93.42"/>
      </g>
    </g>
    <text class="st3" transform="translate(1002.08 67.42)"><tspan x="0" y="0">© 2025 Keyla. All rights reserved.</tspan></text>
    <g class="st7">
      <g>
        <path class="st2" d="M18.07,49.93V-12.1h13.92V12.2h12.58l21.05-24.29h14.45v4.65l-22.93,26.36,22.93,26.36v4.65h-14.45l-21.05-24.3h-12.58v24.3h-13.92Z"/>
        <path class="st2" d="M95.14,48.21c-1.96-1.15-3.54-2.67-4.73-4.57-1.19-1.9-1.78-3.96-1.78-6.2V12.46c0-2.24.59-4.31,1.78-6.2,1.19-1.9,2.77-3.42,4.73-4.57,1.96-1.15,4.1-1.72,6.42-1.72h26.58c2.38,0,4.55.57,6.51,1.72,1.96,1.15,3.52,2.67,4.68,4.57s1.74,3.96,1.74,6.2v19.13h-38.81v5.17h38.81v13.18h-39.52c-2.32,0-4.46-.57-6.42-1.72ZM102.28,20.04h25.16v-6.89h-25.16v6.89Z"/>
        <path class="st2" d="M18.07,67.85v-13.27h169.5v-4.65h-25.87c-2.38,0-4.55-.57-6.51-1.72-1.96-1.15-3.54-2.67-4.73-4.57-1.19-1.9-1.78-3.96-1.78-6.2V.14h13.65v36.61h25.25V.14h13.65v55.22c0,2.3-.58,4.39-1.74,6.29s-2.72,3.4-4.68,4.52c-1.96,1.12-4.13,1.68-6.51,1.68H18.07Z"/>
        <path class="st2" d="M216.42,66.08c-1.96-1.15-3.54-2.67-4.73-4.57-1.19-1.9-1.78-3.96-1.78-6.2l-.13-71.8h13.74l.13,71.11h69.63v13.18h-70.43c-2.32,0-4.46-.57-6.42-1.72Z"/>
        <path class="st2" d="M253.76,49.93c-2.38,0-4.55-.57-6.51-1.72-1.96-1.15-3.52-2.67-4.68-4.57s-1.74-3.96-1.74-6.2v-19.13h38.81v-5.17h-38.81V-.03h39.52c2.38,0,4.55.57,6.51,1.72,1.96,1.15,3.52,2.67,4.68,4.57,1.16,1.9,1.74,3.96,1.74,6.2v37.48h-39.52ZM279.63,36.75v-6.89h-25.16v6.89h25.16Z"/>
        <path class="st2" d="M300.86,67.85V-12.1h13.65v79.95h-13.65Z"/>
        <path class="st2" d="M329.14,67.85v-13.27h30.69v-4.65h-25.87c-2.38,0-4.55-.57-6.51-1.72-1.96-1.15-3.54-2.67-4.73-4.57-1.19-1.9-1.78-3.96-1.78-6.2V.14h13.65v36.61h25.25V.14h13.65v55.22c0,2.3-.58,4.39-1.74,6.29s-2.72,3.4-4.68,4.52c-1.96,1.12-4.13,1.68-6.51,1.68h-31.4Z"/>
        <path class="st4" d="M1121.17,67.85L1092.71-.03h15.7l18.64,45.06L1145.7-.03h15.7l-28.55,67.89h-11.69Z"/>
        <polygon class="st2" points="448.86 -.03 395.87 67.85 380.17 67.85 380.17 -.03 395.87 -.03 395.87 47.74 433.16 -.03 448.86 -.03"/>
      </g>
    </g>
  </g>
  <path class="st0" d="M929.76-144.17h44.04V32.69c0,9.95-8.08,18.02-18.02,18.02h-8c-9.95,0-18.02-8.08-18.02-18.02v-176.87h0Z"/>
  <rect class="st8" x="937.58" y="14.5" width="28.39" height="28.39" rx="14.19" ry="14.19"/>
  <polygon class="st1" points="1126.01 67.85 1179 -.03 1179 67.85 1126.01 67.85"/>
  <rect class="st2" y="76.58" width="1179" height=".69"/>
  <g>
    <path class="st0" d="M948.51,36.11v-14.67c0-.39.32-.71.71-.71h.97c.39,0,.71.32.71.71v9.34c0,.32.38.48.61.25l3.33-3.33c.23-.23.07-.61-.25-.61h-1.47v-1.62c0-.43.35-.77.77-.77h6.03c.48,0,.72.58.38.92l-10.86,10.86c-.34.34-.92.1-.92-.38Z"/>
    <path class="st0" d="M946.03,24.97l-.76,1.4c-.19.34.06.76.45.76h1.28c.28,0,.51-.23.51-.51l.02-1.91h-1.05c-.19,0-.36.1-.45.27Z"/>
  </g>
</svg>