<?xml version="1.0" encoding="UTF-8"?>
<svg id="Layer_1" xmlns="http://www.w3.org/2000/svg" version="1.1" xmlns:xlink="http://www.w3.org/1999/xlink" viewBox="0 0 1179 89.2">
  <!-- Generator: Adobe Illustrator 29.2.0, SVG Export Plug-In . SVG Version: 2.1.0 Build 108)  -->
  <defs>
    <style>
      .st0, .st1 {
        fill: #fff;
      }

      .st2, .st3, .st4 {
        fill: #262626;
      }

      .st5 {
        fill: none;
      }

      .st1, .st4 {
        display: none;
      }

      .st6 {
        clip-path: url(#clippath-1);
      }

      .st7, .st3 {
        isolation: isolate;
      }

      .st3 {
        font-family: ArialMT, Arial;
        font-size: 10.1px;
      }

      .st8 {
        clip-path: url(#clippath-2);
      }

      .st9 {
        fill: #0a0a0a;
      }

      .st10 {
        clip-path: url(#clippath);
      }
    </style>
    <clipPath id="clippath">
      <rect class="st5" x="-255.8" y="-145" width="1690.5" height="230.7"/>
    </clipPath>
    <clipPath id="clippath-1">
      <rect class="st5" x="993" y="18.3" width="169.9" height="38"/>
    </clipPath>
    <clipPath id="clippath-2">
      <rect class="st5" x=".6" width="1177.9" height="85.7"/>
    </clipPath>
  </defs>
  <rect class="st9" x="-255.8" y="-145" width="1690.5" height="230.7"/>
  <g class="st10">
    <g>
      <g>
        <polygon class="st2" points="-398.3 122.4 -400.4 122.4 -253.9 -65 -251.8 -65 -398.3 122.4"/>
        <polygon class="st2" points="-389.6 122.4 -391.7 122.4 -245.2 -65 -243.2 -65 -389.6 122.4"/>
        <polygon class="st2" points="-381 122.4 -383 122.4 -236.5 -65 -234.5 -65 -381 122.4"/>
        <polygon class="st2" points="-372.3 122.4 -374.3 122.4 -227.9 -65 -225.8 -65 -372.3 122.4"/>
        <polygon class="st2" points="-363.6 122.4 -365.6 122.4 -219.2 -65 -217.1 -65 -363.6 122.4"/>
        <polygon class="st2" points="-354.9 122.4 -357 122.4 -210.5 -65 -208.4 -65 -354.9 122.4"/>
        <polygon class="st2" points="-346.2 122.4 -348.3 122.4 -201.8 -65 -199.7 -65 -346.2 122.4"/>
        <polygon class="st2" points="-337.5 122.4 -339.6 122.4 -193.1 -65 -191.1 -65 -337.5 122.4"/>
        <polygon class="st2" points="-328.9 122.4 -330.9 122.4 -184.4 -65 -182.4 -65 -328.9 122.4"/>
        <polygon class="st2" points="-320.2 122.4 -322.2 122.4 -175.7 -65 -173.7 -65 -320.2 122.4"/>
        <polygon class="st2" points="-311.5 122.4 -313.5 122.4 -167.1 -65 -165 -65 -311.5 122.4"/>
        <polygon class="st2" points="-302.8 122.4 -304.9 122.4 -158.4 -65 -156.3 -65 -302.8 122.4"/>
        <polygon class="st2" points="-294.1 122.4 -296.2 122.4 -149.7 -65 -147.6 -65 -294.1 122.4"/>
        <polygon class="st2" points="-285.4 122.4 -287.5 122.4 -141 -65 -138.9 -65 -285.4 122.4"/>
        <polygon class="st2" points="-276.8 122.4 -278.8 122.4 -132.3 -65 -130.3 -65 -276.8 122.4"/>
        <polygon class="st2" points="-268.1 122.4 -270.1 122.4 -123.6 -65 -121.6 -65 -268.1 122.4"/>
        <polygon class="st2" points="-259.4 122.4 -261.4 122.4 -114.9 -65 -112.9 -65 -259.4 122.4"/>
        <polygon class="st2" points="-250.7 122.4 -252.8 122.4 -106.3 -65 -104.2 -65 -250.7 122.4"/>
        <polygon class="st2" points="-242 122.4 -244.1 122.4 -97.6 -65 -95.5 -65 -242 122.4"/>
        <polygon class="st2" points="-233.3 122.4 -235.4 122.4 -88.9 -65 -86.8 -65 -233.3 122.4"/>
        <polygon class="st2" points="-224.6 122.4 -226.7 122.4 -80.2 -65 -78.2 -65 -224.6 122.4"/>
        <polygon class="st2" points="-216 122.4 -218 122.4 -71.5 -65 -69.5 -65 -216 122.4"/>
        <polygon class="st2" points="-207.3 122.4 -209.3 122.4 -62.8 -65 -60.8 -65 -207.3 122.4"/>
        <polygon class="st2" points="-198.6 122.4 -200.6 122.4 -54.2 -65 -52.1 -65 -198.6 122.4"/>
        <polygon class="st2" points="-189.9 122.4 -192 122.4 -45.5 -65 -43.4 -65 -189.9 122.4"/>
        <polygon class="st2" points="-181.2 122.4 -183.3 122.4 -36.8 -65 -34.7 -65 -181.2 122.4"/>
        <polygon class="st2" points="-172.5 122.4 -174.6 122.4 -28.1 -65 -26 -65 -172.5 122.4"/>
        <polygon class="st2" points="-163.9 122.4 -165.9 122.4 -19.4 -65 -17.4 -65 -163.9 122.4"/>
        <polygon class="st2" points="-155.2 122.4 -157.2 122.4 -10.7 -65 -8.7 -65 -155.2 122.4"/>
        <polygon class="st2" points="-146.5 122.4 -148.5 122.4 -2.1 -65 0 -65 -146.5 122.4"/>
      </g>
      <g>
        <polygon class="st2" points="1181.1 122.4 1179 122.4 1325.5 -65 1327.5 -65 1181.1 122.4"/>
        <polygon class="st2" points="1189.7 122.4 1187.7 122.4 1334.2 -65 1336.2 -65 1189.7 122.4"/>
        <polygon class="st2" points="1198.4 122.4 1196.4 122.4 1342.8 -65 1344.9 -65 1198.4 122.4"/>
        <polygon class="st2" points="1207.1 122.4 1205.1 122.4 1351.5 -65 1353.6 -65 1207.1 122.4"/>
        <polygon class="st2" points="1215.8 122.4 1213.7 122.4 1360.2 -65 1362.3 -65 1215.8 122.4"/>
        <polygon class="st2" points="1224.5 122.4 1222.4 122.4 1368.9 -65 1371 -65 1224.5 122.4"/>
        <polygon class="st2" points="1233.2 122.4 1231.1 122.4 1377.6 -65 1379.7 -65 1233.2 122.4"/>
        <polygon class="st2" points="1241.8 122.4 1239.8 122.4 1386.3 -65 1388.3 -65 1241.8 122.4"/>
        <polygon class="st2" points="1250.5 122.4 1248.5 122.4 1395 -65 1397 -65 1250.5 122.4"/>
        <polygon class="st2" points="1259.2 122.4 1257.2 122.4 1403.6 -65 1405.7 -65 1259.2 122.4"/>
        <polygon class="st2" points="1267.9 122.4 1265.8 122.4 1412.3 -65 1414.4 -65 1267.9 122.4"/>
        <polygon class="st2" points="1276.6 122.4 1274.5 122.4 1421 -65 1423.1 -65 1276.6 122.4"/>
        <polygon class="st2" points="1285.3 122.4 1283.2 122.4 1429.7 -65 1431.8 -65 1285.3 122.4"/>
        <polygon class="st2" points="1293.9 122.4 1291.9 122.4 1438.4 -65 1440.4 -65 1293.9 122.4"/>
        <polygon class="st2" points="1302.6 122.4 1300.6 122.4 1447.1 -65 1449.1 -65 1302.6 122.4"/>
        <polygon class="st2" points="1311.3 122.4 1309.3 122.4 1455.8 -65 1457.8 -65 1311.3 122.4"/>
        <polygon class="st2" points="1320 122.4 1317.9 122.4 1464.4 -65 1466.5 -65 1320 122.4"/>
        <polygon class="st2" points="1328.7 122.4 1326.6 122.4 1473.1 -65 1475.2 -65 1328.7 122.4"/>
        <polygon class="st2" points="1337.4 122.4 1335.3 122.4 1481.8 -65 1483.9 -65 1337.4 122.4"/>
        <polygon class="st2" points="1346.1 122.4 1344 122.4 1490.5 -65 1492.5 -65 1346.1 122.4"/>
        <polygon class="st2" points="1354.7 122.4 1352.7 122.4 1499.2 -65 1501.2 -65 1354.7 122.4"/>
        <polygon class="st2" points="1363.4 122.4 1361.4 122.4 1507.8 -65 1509.9 -65 1363.4 122.4"/>
        <polygon class="st2" points="1372.1 122.4 1370.1 122.4 1516.5 -65 1518.6 -65 1372.1 122.4"/>
        <polygon class="st2" points="1380.8 122.4 1378.7 122.4 1525.2 -65 1527.3 -65 1380.8 122.4"/>
        <polygon class="st2" points="1389.5 122.4 1387.4 122.4 1533.9 -65 1536 -65 1389.5 122.4"/>
        <polygon class="st2" points="1398.2 122.4 1396.1 122.4 1542.6 -65 1544.7 -65 1398.2 122.4"/>
        <polygon class="st2" points="1406.8 122.4 1404.8 122.4 1551.3 -65 1553.3 -65 1406.8 122.4"/>
        <polygon class="st2" points="1415.5 122.4 1413.5 122.4 1560 -65 1562 -65 1415.5 122.4"/>
        <polygon class="st2" points="1424.2 122.4 1422.2 122.4 1568.6 -65 1570.7 -65 1424.2 122.4"/>
        <polygon class="st2" points="1432.9 122.4 1430.8 122.4 1577.3 -65 1579.4 -65 1432.9 122.4"/>
      </g>
    </g>
  </g>
  <rect class="st2" x="-255.8" y="-145" width="1690.5" height="98.2"/>
  <g>
    <g class="st6">
      <g>
        <path class="st2" d="M1109.1,73.9h-5.5V-18.9c1.6,1,3.9,1,5.5,0v92.7h0Z"/>
        <path class="st2" d="M1041.7,73.9h-5.5V-18.9c1.6,1,3.9,1,5.5,0v92.7h0Z"/>
        <path class="st2" d="M1048.6,73.9h-5.5V-18.9c1.6,1,3.9,1,5.5,0v92.7h0Z"/>
        <path class="st2" d="M1004.6,73.9h-4.1V-18.9c1.5,1,2.7,1,4.1,0v92.7h0Z"/>
        <rect class="st2" x="1077.5" y="-18.9" width="2.8" height="92.7"/>
        <rect class="st2" x="1062.3" y="-18.9" width="2.8" height="92.7"/>
        <rect class="st2" x="1054.1" y="-18.9" width="2.8" height="92.7"/>
        <rect class="st2" x="1050" y="-18.9" width="2.8" height="92.7"/>
        <rect class="st2" x="1023.9" y="-18.9" width="2.8" height="92.7"/>
        <rect class="st2" x="993.7" y="-18.9" width="2.8" height="92.7"/>
        <rect class="st2" x="1008.8" y="-18.9" width="2.8" height="92.7"/>
        <rect class="st2" x="1126.9" y="-18.9" width="2.8" height="92.7"/>
        <rect class="st2" x="1114.6" y="-18.9" width="2.8" height="92.7"/>
        <rect class="st2" x="1110.4" y="-18.9" width="2.8" height="92.7"/>
        <rect class="st2" x="1099.4" y="-18.9" width="2.8" height="92.7"/>
        <rect class="st2" x="1144.8" y="-18.9" width="2.8" height="92.7"/>
        <rect class="st2" x="1159.9" y="-18.2" width="2.8" height="92.1"/>
        <rect class="st2" x="1157.1" y="-19.6" width="1.4" height="93.4"/>
        <rect class="st2" x="1153" y="-19.6" width="1.4" height="93.4"/>
        <rect class="st2" x="1137.9" y="-19.6" width="1.4" height="93.4"/>
        <rect class="st2" x="1133.8" y="-19.6" width="1.4" height="93.4"/>
        <rect class="st2" x="1131" y="-19.6" width="1.4" height="93.4"/>
        <rect class="st2" x="1070.6" y="-19.6" width="1.4" height="93.4"/>
        <rect class="st2" x="1081.6" y="-19.6" width="1.4" height="93.4"/>
        <rect class="st2" x="1085.7" y="-19.6" width="1.4" height="93.4"/>
        <rect class="st2" x="1092.6" y="-19.6" width="1.4" height="93.4"/>
        <rect class="st2" x="1033.5" y="-19.6" width="1.4" height="93.4"/>
        <rect class="st2" x="1017" y="-19.6" width="1.4" height="93.4"/>
        <rect class="st2" x="1014.3" y="-19.6" width="1.4" height="93.4"/>
        <rect class="st2" x="1059.6" y="-19.6" width="1.4" height="93.4"/>
        <rect class="st2" x="1095.3" y="-19.6" width="1.4" height="93.4"/>
        <rect class="st2" x="997.8" y="-19.6" width="1.4" height="93.4"/>
        <rect class="st2" x="1122.8" y="-19.6" width="1.4" height="93.4"/>
        <rect class="st2" x="1029.4" y="-19.6" width="1.4" height="93.4"/>
      </g>
    </g>
    <g class="st7">
      <text class="st3" transform="translate(1002.1 67.4)"><tspan x="0" y="0">© 2025 Keyla. All rights reserved.</tspan></text>
    </g>
    <g class="st8">
      <g>
        <path class="st2" d="M18.1,49.9V-12.1h13.9V12.2h12.6l21-24.3h14.4v4.7l-22.9,26.4,22.9,26.4v4.7h-14.4l-21-24.3h-12.6v24.3s-13.9,0-13.9,0Z"/>
        <path class="st2" d="M95.1,48.2c-2-1.2-3.5-2.7-4.7-4.6s-1.8-4-1.8-6.2V12.5c0-2.2.6-4.3,1.8-6.2,1.2-1.9,2.8-3.4,4.7-4.6,2-1.1,4.1-1.7,6.4-1.7h26.6c2.4,0,4.6.6,6.5,1.7,2,1.2,3.5,2.7,4.7,4.6,1.2,1.9,1.7,4,1.7,6.2v19.1h-38.8v5.2h38.8v13.2h-39.5c-2.3,0-4.5-.6-6.4-1.7h0ZM102.3,20h25.2v-6.9h-25.2v6.9Z"/>
        <path class="st2" d="M18.1,67.8v-13.3h169.5v-4.7h-25.9c-2.4,0-4.6-.6-6.5-1.7-2-1.2-3.5-2.7-4.7-4.6-1.2-1.9-1.8-4-1.8-6.2V.1h13.6v36.6h25.2V.1h13.6v55.2c0,2.3-.6,4.4-1.7,6.3s-2.7,3.4-4.7,4.5c-2,1.1-4.1,1.7-6.5,1.7H18.1Z"/>
        <path class="st2" d="M216.4,66.1c-2-1.2-3.5-2.7-4.7-4.6s-1.8-4-1.8-6.2V-16.5c-.1,0,13.6,0,13.6,0V54.6h69.8v13.2h-70.4c-2.3,0-4.5-.6-6.4-1.7h0Z"/>
        <path class="st2" d="M253.8,49.9c-2.4,0-4.6-.6-6.5-1.7-2-1.2-3.5-2.7-4.7-4.6s-1.7-4-1.7-6.2v-19.1h38.8v-5.2h-38.8V0h39.5c2.4,0,4.5.6,6.5,1.7,2,1.2,3.5,2.7,4.7,4.6,1.2,1.9,1.7,4,1.7,6.2v37.5h-39.5ZM279.6,36.8v-6.9h-25.2v6.9h25.2Z"/>
        <path class="st2" d="M300.9,67.8V-12.1h13.6v79.9h-13.6Z"/>
        <path class="st2" d="M329.1,67.8v-13.3h30.7v-4.7h-25.9c-2.4,0-4.5-.6-6.5-1.7-2-1.2-3.5-2.7-4.7-4.6-1.2-1.9-1.8-4-1.8-6.2V.1h13.6v36.6h25.2V.1h13.6v55.2c0,2.3-.6,4.4-1.7,6.3s-2.7,3.4-4.7,4.5c-2,1.1-4.1,1.7-6.5,1.7h-31.4Z"/>
        <path class="st4" d="M1121.2,67.8L1092.7,0h15.7l18.6,45.1L1145.7,0h15.7l-28.6,67.9h-11.7,0Z"/>
        <polygon class="st2" points="448.9 0 395.9 67.8 380.2 67.8 380.2 0 395.9 0 395.9 47.7 433.2 0 448.9 0"/>
      </g>
    </g>
  </g>
  <path class="st0" d="M929.8-144.2h44V32.7c0,10-8.1,18-18,18h-8c-10,0-18-8.1-18-18v-176.9h0Z"/>
  <rect class="st9" x="937.6" y="14.5" width="28.4" height="28.4" rx="14.2" ry="14.2"/>
  <polygon class="st1" points="1126 67.8 1179 0 1179 67.8 1126 67.8"/>
  <rect class="st2" y="76.6" width="1179" height=".7"/>
  <g>
    <path class="st0" d="M946.7,38.2v-18.6c0-.3.3-.6.6-.6h1.6c.3,0,.6.3.6.6v11.7c0,.3.3.4.5.2l4.4-4.4c.2-.2,0-.5-.2-.5h-3v-2.3c0-.3.3-.6.6-.6h9.3c.3,0,.4.3.2.5l-14.2,14.2c-.2.2-.5,0-.5-.2Z"/>
    <path class="st0" d="M943.3,23.9l-1.2,2.2c-.1.2,0,.4.3.4h2.1c.3,0,.6-.3.6-.6v-2.3s-1.3,0-1.3,0c-.2,0-.3,0-.4.2Z"/>
  </g>
</svg>