<?xml version="1.0" encoding="UTF-8"?>
<svg id="Layer_1" xmlns="http://www.w3.org/2000/svg" version="1.1" viewBox="0 0 1080 1080">
  <!-- Generator: Adobe Illustrator 29.2.0, SVG Export Plug-In . SVG Version: 2.1.0 Build 108)  -->
  <g>
    <path d="M97.5,696.2c-15.1-6-29.2-7.1-42.3-3.2-13.1,3.9-25.7,14.1-37.9,30.5-5.6,7.6-9.8,15-12.7,22.4l117.6-37.4c-8.7-5.1-16.9-9.2-24.8-12.3ZM166.1,740l-44,59.6,4.4,3.3,59-48.6-19.4-14.3h0ZM61.4,769.9c-2.5-4.6-1.6-9.7,2.5-15.4,3.3-4.5,7.3-6.2,11.9-5s9.6,3.7,14.8,7.6l21.6,16,35.2-47.7c-5.9-4.3-11.6-8.3-17.1-11.8L1.9,754.4c-7.2,28.2,6,54.7,39.6,79.5l25,18.4,47.7-39.3-42.4-31.3c-4.5-3.3-8-7.3-10.5-11.9h0Z"/>
    <path d="M323.5,640.6l-157.5-130.2-72.8,72.8,87.9,106.7,58-18.5-74.5-86.5,2-1.9,96.2,80.9,53-16.8h0s11.2-3.6,11.2-3.6l-3.4-2.8ZM278.8,677.4l21.8-18-31.4,10,9.5,8ZM186,695.9l28.5,34.6,44.1-36.3-14.4-16.7-58.2,18.5ZM375.5,683.6l9.8,36.5,15.6-15.6-25.3-20.9ZM278.8,677.4l21.8-18-31.4,10,9.5,8ZM186,695.9l28.5,34.6,44.1-36.3-14.4-16.7-58.2,18.5Z"/>
    <path d="M566.8,593.3l-33.8,52.5-62.8-40.4h0l-75,23.9,148.5,95.5,66.6-103.5-43.5-28h0ZM321.4,509.6l-32.8,51,98.8,63.5,75-23.9-141-90.7Z"/>
    <path d="M563.6,468.6l-44.1,44.1-178-178-42.9,42.9,208.5,208.5,17.8-5.7,75.3-75.3-36.6-36.6ZM513.2,592.2l.6-.6-.8.3.3.3Z"/>
    <path d="M573.6,450.2l-248.5-174,69.6-99.4,48,33.6-34.2,48.9,48.4,33.9,32.8-46.9,46.7,32.7-32.8,46.9,56.9,39.8,36.5-52.1,48.4,33.9-71.9,102.6h0Z"/>
    <path d="M690.8,246.6l84,84,42.3-42.3-81.2-81.2c-8.5-8.4-16.7-14-24.7-16.6s-16.1-1.2-24.3,4.1c5.5-10.9,6.3-21.3,2.3-31.3-4-9.9-11.9-20.8-23.6-32.5-12.1-12.1-23.6-21.7-34.5-28.8-10.9-7.1-21.6-10.3-32.2-9.7s-21.4,6.4-32.4,17.4l-22.3,22.3,173.4,255.7,41-41-97.9-97.9c5.7-5.7,10.6-9.1,14.6-10.1,4.1-1.1,9.2,1.5,15.5,7.8h0ZM634.1,201.1l-10.4,10.4-39.7-39.7,10-10c3.6-3.6,7.3-4.7,11.2-3.4,3.9,1.3,10,6.1,18.4,14.5,12.9,12.9,16.4,22.4,10.5,28.3h0ZM500.6,175.7l200,200-161.7-238.4-38.4,38.4h0Z"/>
    <path d="M859.6,313.5l-52.5-84.9-148.3-147.6,51.2-31.7,68.4,78.5-39.7-96.3L789.7,0l66,198.5,52.5,84.9-48.7,30.1Z"/>
  </g>
  <polygon points="454.5 0 544.1 132.2 539 137.3 445.9 0 454.5 0"/>
  <polygon points="1021.5 836.2 1015.6 840.2 787.9 504.4 783.7 498.1 700.7 375.7 715.1 390.2 717.5 387.9 790.7 495.9 795 502.1 1021.5 836.2"/>
  <path d="M0,747.4l4.7-1.5c-1.1,2.8-2,5.7-2.8,8.5L0,755s0-7.6,0-7.6Z"/>
  <path d="M181.1,689.8l5,6-55.6,17.7c-2.8-1.8-5.5-3.4-8.1-5l58.8-18.7h0Z"/>
  <polygon points="269.3 669.4 244.2 677.3 239 671.4 262.7 663.8 269.3 669.4"/>
  <polygon points="395.2 629.3 363.6 639.3 361.8 632.3 387.3 624.2 395.2 629.3"/>
  <polygon points="507.1 586.1 512.9 591.9 470.3 605.4 470.3 605.4 462.4 600.3 507.1 586.1"/>
  <polygon points="1080 403.9 1080 411.5 795 502.1 787.9 504.4 513.7 591.6 524.9 580.5 783.7 498.1 790.7 495.9 1080 403.9"/>
  <rect x="815.3" y="808.5" width="239.7" height="239.8" rx="29.6" ry="29.6" transform="translate(-323.4 1318.9) rotate(-62)"/>
  <rect x="71.6" y="14.5" width="181.4" height="181.4" rx="34" ry="34" transform="translate(-24.2 54.1) rotate(-17.6)"/>
  <path d="M190.2,869.1l-75.9-56,12.3-10.2,37.7,27.8,9.6-13,34.8,25.7c6.8,5,11.6,9.8,14.4,14.6,2.9,4.7,2.4,9.7-1.4,14.9-3.7,5-8.2,6.8-13.6,5.5-5.4-1.3-11.3-4.4-17.9-9.2h0Z"/>
  <polygon points="265.5 702.1 258.6 694.1 278.8 677.4 285 682.6 265.5 702.1"/>
  <polygon points="326.9 643.4 315.7 647 323.5 640.6 356.6 613.2 361.8 632.3 326.9 643.4"/>
  <polygon points="333.5 648.9 363.6 639.3 375.5 683.6 333.5 648.9"/>
  <path d="M475,1055.9L3,904.7l63.5-52.3,80.3,59.2c49.9,36.8,87.8,37.8,113.5,3,13.5-18.3,15.8-37.3,6.9-57l26.7,6.8,14.4-19.6-122.8-90.6,28.9-23.9,72.5,88,41.7-41.7-31.9-37.3,25.8-25.8,37.7,31.6,25-25,89.8,335.8Z"/>
</svg>