<?xml version="1.0" encoding="UTF-8"?>
<svg id="Layer_1" xmlns="http://www.w3.org/2000/svg" version="1.1" viewBox="0 0 89.2 160">
  <!-- Generator: Adobe Illustrator 29.2.0, SVG Export Plug-In . SVG Version: 2.1.0 Build 108)  -->
  <defs>
    <style>
      .st0 {
        fill: #fff;
      }

      .st1 {
        fill: #0a0a0a;
      }
    </style>
  </defs>
  <g>
    <path class="st1" d="M66.3,101.1c-.6-1.3-1.9-2.2-3.3-2.2h-20.8c-2,0-3.9.8-5.3,2.2L1.6,136.4c-2.2,2.2-2.2,5.7,0,7.9l8.4,8.4c1.1,1.1,2.5,1.6,3.9,1.6s2.8-.5,3.9-1.6l47.7-47.7c1-1,1.3-2.5.8-3.9ZM63.4,102.9l-47.7,47.7c-1,1-2.6,1-3.6,0l-8.4-8.4c-.5-.5-.8-1.1-.8-1.8s.3-1.3.8-1.8l35.3-35.3c.8-.8,2-1.3,3.2-1.3h20.8c.3,0,.5.2.5.4,0,.1.1.4-.1.6Z"/>
    <path class="st0" d="M63.4,102.9l-47.7,47.7c-1,1-2.6,1-3.6,0l-8.4-8.4c-.5-.5-.8-1.1-.8-1.8s.3-1.3.8-1.8l35.3-35.3c.8-.8,2-1.3,3.2-1.3h20.8c.3,0,.5.2.5.4,0,.1.1.4-.1.6Z"/>
  </g>
  <g>
    <path class="st1" d="M88.2,77.6L17.9,7.3c-2.2-2.2-5.7-2.2-7.9,0L1.6,15.7C.6,16.8,0,18.2,0,19.7s.6,2.9,1.6,3.9l43.9,43.9c.2.2.2.5.1.6,0,.1-.2.4-.5.4H5.6C2.5,68.5,0,71,0,74.1v11.8c0,3.1,2.5,5.6,5.6,5.6h70.4c2,0,3.9-.8,5.3-2.2l6.9-6.9.4-.5h0c.4-.6.5-1.3.5-1.9s-.3-1.8-1-2.4ZM86.1,80.2l-6.9,6.9c-.8.8-2,1.3-3.2,1.3H5.6c-1.4,0-2.6-1.2-2.6-2.6v-11.8c0-1.4,1.2-2.6,2.6-2.6h39.5c1.5,0,2.8-.9,3.3-2.2.6-1.3.2-2.9-.8-3.9L3.8,21.5c-.5-.5-.8-1.1-.8-1.8s.3-1.3.8-1.8l8.4-8.4c1-1,2.6-1,3.7,0l70.2,70.2c0,.1.1.2.1.3s0,.2,0,.2Z"/>
    <path class="st0" d="M86.2,80c0,0,0,.2,0,.2l-6.9,6.9c-.8.8-2,1.3-3.2,1.3H5.6c-1.4,0-2.6-1.2-2.6-2.6v-11.8c0-1.4,1.2-2.6,2.6-2.6h39.5c1.5,0,2.8-.9,3.3-2.2.6-1.3.2-2.9-.8-3.9L3.8,21.5c-.5-.5-.8-1.1-.8-1.8s.3-1.3.8-1.8l8.4-8.4c1-1,2.6-1,3.7,0l70.2,70.2c0,.1.1.2.1.3Z"/>
  </g>
</svg>