<?xml version="1.0" encoding="UTF-8"?>
<svg id="Layer_1" xmlns="http://www.w3.org/2000/svg" version="1.1" viewBox="0 0 157.8 157.8">
  <!-- Generator: Adobe Illustrator 29.2.0, SVG Export Plug-In . SVG Version: 2.1.0 Build 108)  -->
  <defs>
    <style>
      .st0 {
        display: none;
      }
    </style>
  </defs>
  <rect class="st0" x="-2.4" y="-1.1" width="160" height="160"/>
  <g>
    <polygon points="-162 0 -162.9 0 -5.1 157.8 -4.3 157.8 -162 0"/>
    <polygon points="-156.8 0 -157.6 0 .2 157.8 1 157.8 -156.8 0"/>
    <polygon points="-151.5 0 -152.3 0 5.4 157.8 6.2 157.8 -151.5 0"/>
    <polygon points="-146.3 0 -147.1 0 10.7 157.8 11.5 157.8 -146.3 0"/>
    <polygon points="-141 0 -141.8 0 16 157.8 16.8 157.8 -141 0"/>
    <polygon points="-135.7 0 -136.6 0 21.2 157.8 22 157.8 -135.7 0"/>
    <polygon points="-130.5 0 -131.3 0 26.5 157.8 27.3 157.8 -130.5 0"/>
    <polygon points="-125.2 0 -126 0 31.7 157.8 32.5 157.8 -125.2 0"/>
    <polygon points="-120 0 -120.8 0 37 157.8 37.8 157.8 -120 0"/>
    <polygon points="-114.7 0 -115.5 0 42.3 157.8 43.1 157.8 -114.7 0"/>
    <polygon points="-109.4 0 -110.2 0 47.5 157.8 48.3 157.8 -109.4 0"/>
    <polygon points="-104.2 0 -105 0 52.8 157.8 53.6 157.8 -104.2 0"/>
    <polygon points="-98.9 0 -99.7 0 58 157.8 58.8 157.8 -98.9 0"/>
    <polygon points="-93.7 0 -94.5 0 63.3 157.8 64.1 157.8 -93.7 0"/>
    <polygon points="-88.4 0 -89.2 0 68.6 157.8 69.4 157.8 -88.4 0"/>
    <polygon points="-83.2 0 -84 0 73.8 157.8 74.6 157.8 -83.2 0"/>
    <polygon points="-77.9 0 -78.7 0 79.1 157.8 79.9 157.8 -77.9 0"/>
    <polygon points="-72.6 0 -73.4 0 84.3 157.8 85.1 157.8 -72.6 0"/>
    <polygon points="-67.4 0 -68.2 0 89.6 157.8 90.4 157.8 -67.4 0"/>
    <polygon points="-62.1 0 -62.9 0 94.8 157.8 95.7 157.8 -62.1 0"/>
    <polygon points="-56.8 0 -57.7 0 100.1 157.8 100.9 157.8 -56.8 0"/>
    <polygon points="-51.6 0 -52.4 0 105.4 157.8 106.2 157.8 -51.6 0"/>
    <polygon points="-46.3 0 -47.2 0 110.6 157.8 111.4 157.8 -46.3 0"/>
    <polygon points="-41.1 0 -41.9 0 115.9 157.8 116.7 157.8 -41.1 0"/>
    <polygon points="-35.8 0 -36.6 0 121.1 157.8 121.9 157.8 -35.8 0"/>
    <polygon points="-30.6 0 -31.4 0 126.4 157.8 127.2 157.8 -30.6 0"/>
    <polygon points="-25.3 0 -26.1 0 131.7 157.8 132.5 157.8 -25.3 0"/>
    <polygon points="-20 0 -20.9 0 136.9 157.8 137.7 157.8 -20 0"/>
    <polygon points="-14.8 0 -15.6 0 142.2 157.8 143 157.8 -14.8 0"/>
    <polygon points="-9.5 0 -10.3 0 147.4 157.8 148.2 157.8 -9.5 0"/>
    <polygon points="-4.3 0 -5.1 0 152.7 157.8 153.5 157.8 -4.3 0"/>
    <polygon points="1 0 .2 0 158 157.8 158.8 157.8 1 0"/>
    <polygon points="6.3 0 5.4 0 163.2 157.8 164 157.8 6.3 0"/>
    <polygon points="11.5 0 10.7 0 168.5 157.8 169.3 157.8 11.5 0"/>
    <polygon points="16.8 0 16 0 173.7 157.8 174.5 157.8 16.8 0"/>
    <polygon points="22 0 21.2 0 179 157.8 179.8 157.8 22 0"/>
    <polygon points="27.3 0 26.5 0 184.2 157.8 185.1 157.8 27.3 0"/>
    <polygon points="32.5 0 31.7 0 189.5 157.8 190.3 157.8 32.5 0"/>
    <polygon points="37.8 0 37 0 194.8 157.8 195.6 157.8 37.8 0"/>
    <polygon points="43.1 0 42.3 0 200 157.8 200.8 157.8 43.1 0"/>
    <polygon points="48.3 0 47.5 0 205.3 157.8 206.1 157.8 48.3 0"/>
    <polygon points="53.6 0 52.8 0 210.6 157.8 211.4 157.8 53.6 0"/>
    <polygon points="58.8 0 58 0 215.8 157.8 216.6 157.8 58.8 0"/>
    <polygon points="64.1 0 63.3 0 221.1 157.8 221.9 157.8 64.1 0"/>
    <polygon points="69.4 0 68.6 0 226.3 157.8 227.1 157.8 69.4 0"/>
    <polygon points="74.6 0 73.8 0 231.6 157.8 232.4 157.8 74.6 0"/>
    <polygon points="79.9 0 79.1 0 236.8 157.8 237.6 157.8 79.9 0"/>
    <polygon points="85.1 0 84.3 0 242.1 157.8 242.9 157.8 85.1 0"/>
    <polygon points="90.4 0 89.6 0 247.4 157.8 248.2 157.8 90.4 0"/>
    <polygon points="95.7 0 94.8 0 252.6 157.8 253.4 157.8 95.7 0"/>
    <polygon points="100.9 0 100.1 0 257.9 157.8 258.7 157.8 100.9 0"/>
    <polygon points="106.2 0 105.4 0 263.1 157.8 264 157.8 106.2 0"/>
    <polygon points="111.4 0 110.6 0 268.4 157.8 269.2 157.8 111.4 0"/>
    <polygon points="116.7 0 115.9 0 273.7 157.8 274.5 157.8 116.7 0"/>
    <polygon points="122 0 121.2 0 278.9 157.8 279.7 157.8 122 0"/>
    <polygon points="127.2 0 126.4 0 284.2 157.8 285 157.8 127.2 0"/>
    <polygon points="132.5 0 131.7 0 289.4 157.8 290.2 157.8 132.5 0"/>
    <polygon points="137.7 0 136.9 0 294.7 157.8 295.5 157.8 137.7 0"/>
    <polygon points="143 0 142.2 0 300 157.8 300.8 157.8 143 0"/>
    <polygon points="148.2 0 147.4 0 305.2 157.8 306 157.8 148.2 0"/>
    <polygon points="153.5 0 152.7 0 310.5 157.8 311.3 157.8 153.5 0"/>
    <polygon points="158.8 0 158 0 315.7 157.8 316.5 157.8 158.8 0"/>
  </g>
</svg>