<?xml version="1.0" encoding="UTF-8"?>
<svg id="Layer_1" xmlns="http://www.w3.org/2000/svg" version="1.1" viewBox="0 0 93.2 160">
  <!-- Generator: Adobe Illustrator 29.2.0, SVG Export Plug-In . SVG Version: 2.1.0 Build 108)  -->
  <defs>
    <style>
      .st0 {
        fill: #fff;
      }

      .st1 {
        fill: #0a0a0a;
      }
    </style>
  </defs>
  <g>
    <path class="st1" d="M87.5,15.7l-8.4-8.4c-1-1-2.4-1.6-3.9-1.6s-2.9.6-3.9,1.6L23.6,55c-1,1-1.3,2.5-.8,3.9.6,1.3,1.9,2.2,3.3,2.2h20.8c2,0,3.9-.8,5.3-2.2l35.3-35.3c2.2-2.2,2.2-5.7,0-7.9ZM85.4,21.5l-35.3,35.3c-.8.8-2,1.3-3.2,1.3h-20.8c-.3,0-.5-.2-.5-.4,0-.1-.1-.4.1-.6L73.4,9.5c.5-.5,1.1-.8,1.8-.8s1.3.3,1.8.8l8.4,8.4c1,1,1,2.6,0,3.6Z"/>
    <path class="st0" d="M85.4,21.5l-35.3,35.3c-.8.8-2,1.3-3.2,1.3h-20.8c-.3,0-.5-.2-.5-.4,0-.1-.1-.4.1-.6L73.4,9.5c.5-.5,1.1-.8,1.8-.8s1.3.3,1.8.8l8.4,8.4c1,1,1,2.6,0,3.6Z"/>
  </g>
  <g>
    <path class="st1" d="M87.7,68.5H13.2c-2,0-3.9.8-5.3,2.2l-6.9,6.9-.4.5h0c-.4.6-.6,1.3-.6,1.9s.4,1.8,1,2.4l70.2,70.2c1.1,1.1,2.5,1.6,3.9,1.6s2.9-.5,3.9-1.6l8.4-8.4c2.2-2.2,2.2-5.7,0-7.9l-43.9-43.9c-.2-.2-.2-.5-.1-.6,0-.1.2-.4.5-.4h43.6c3.1,0,5.6-2.5,5.6-5.6v-11.8c0-3.1-2.5-5.6-5.6-5.6ZM90.2,85.9c0,1.4-1.2,2.6-2.6,2.6h-43.6c-1.5,0-2.8.9-3.3,2.2-.5,1.3-.2,2.9.8,3.9l43.9,43.9c1,1,1,2.6,0,3.6l-8.4,8.4c-1,1-2.6,1-3.6,0L3.1,80.3c-.1-.1-.1-.2-.1-.3s0-.2.1-.2l.5-.4h0s6.5-6.5,6.5-6.5c.8-.8,2-1.3,3.2-1.3h74.5c1.4,0,2.6,1.2,2.6,2.6v11.8Z"/>
    <path class="st0" d="M90.2,74.1v11.8c0,1.4-1.2,2.6-2.6,2.6h-43.6c-1.5,0-2.8.9-3.3,2.2-.5,1.3-.2,2.9.8,3.9l43.9,43.9c1,1,1,2.6,0,3.6l-8.4,8.4c-1,1-2.6,1-3.6,0L3.1,80.3c-.1-.1-.1-.2-.1-.3s0-.2.1-.2l.5-.4h0s6.5-6.5,6.5-6.5c.8-.8,2-1.3,3.2-1.3h74.5c1.4,0,2.6,1.2,2.6,2.6Z"/>
  </g>
</svg>