<?xml version="1.0" encoding="UTF-8"?>
<svg id="Layer_1" xmlns="http://www.w3.org/2000/svg" version="1.1" viewBox="0 0 160 160">
  <!-- Generator: Adobe Illustrator 29.2.0, SVG Export Plug-In . SVG Version: 2.1.0 Build 108)  -->
  <defs>
    <style>
      .st0 {
        fill: #fff;
        stroke: #0a0a0a;
        stroke-miterlimit: 10;
        stroke-width: 3px;
      }
    </style>
  </defs>
  <path class="st0" d="M58.83,59.62h-20.8c-1.85,0-2.78-2.23-1.47-3.54L84.23,8.41c1.59-1.59,4.16-1.59,5.75,0,2.6,2.6,5.79,5.79,8.39,8.39,1.59,1.59,1.59,4.17,0,5.76l-35.31,35.31c-1.12,1.12-2.64,1.75-4.22,1.75h-.01Z"/>
  <path class="st0" d="M13.96,78.68c1.45-1.45,3.85-3.85,6.92-6.92,1.12-1.12,2.64-1.75,4.23-1.75h117c2.25,0,4.08,1.83,4.08,4.08v11.84c0,2.25-1.83,4.08-4.08,4.08H55.94c-1.85,0-2.78,2.24-1.47,3.55,9.48,9.48,35.23,35.23,43.89,43.89,1.59,1.59,1.59,4.17,0,5.76-2.44,2.44-5.93,5.93-8.38,8.38-1.59,1.59-4.17,1.59-5.77,0L13.96,81.34c-.73-.73-.74-1.92,0-2.65h0Z"/>
</svg>