<?xml version="1.0" encoding="UTF-8"?>
<svg id="Layer_1" xmlns="http://www.w3.org/2000/svg" version="1.1" xmlns:xlink="http://www.w3.org/1999/xlink" viewBox="0 0 147.1 6045">
  <!-- Generator: Adobe Illustrator 29.2.0, SVG Export Plug-In . SVG Version: 2.1.0 Build 108)  -->
  <defs>
    <style>
      .st0 {
        clip-path: url(#clippath-6);
      }

      .st1 {
        clip-path: url(#clippath-7);
      }

      .st2 {
        clip-path: url(#clippath-4);
      }

      .st3 {
        font-family: ArialMT, Arial;
        font-size: 7.8px;
      }

      .st3, .st4 {
        fill: #262626;
      }

      .st3, .st5 {
        isolation: isolate;
      }

      .st6 {
        fill: #fff;
      }

      .st7 {
        fill: none;
      }

      .st8 {
        clip-path: url(#clippath-1);
      }

      .st9 {
        clip-path: url(#clippath-5);
      }

      .st10 {
        clip-path: url(#clippath-3);
      }

      .st11, .st12 {
        display: none;
      }

      .st13, .st12 {
        fill: #d18d33;
      }

      .st14 {
        clip-path: url(#clippath-2);
      }

      .st15 {
        fill: #0a0a0a;
      }

      .st16 {
        clip-path: url(#clippath);
      }

      .st17 {
        fill: #fbb03b;
      }
    </style>
    <clipPath id="clippath">
      <path class="st7" d="M167.5,280.5l-35.7,32.9v-184.8h33.8c3.2,0,5.8,2.6,5.8,5.8v137.3c0,3.4-1.4,6.6-3.9,8.9h0Z"/>
    </clipPath>
    <clipPath id="clippath-1">
      <rect class="st7" x="80.5" y="848" width="29.5" height="131.9"/>
    </clipPath>
    <clipPath id="clippath-2">
      <path class="st7" d="M-8.4,0h118.3c14.9,0,27,12.1,27,27v955.7c0,14.9-12.1,27-27,27H-8.4V0Z"/>
    </clipPath>
    <clipPath id="clippath-3">
      <rect class="st7" x="-43.7" y="90.3" width="164.9" height="259.5"/>
    </clipPath>
    <clipPath id="clippath-4">
      <rect class="st7" x="-67.4" y="1418" width="164.9" height="259.5"/>
    </clipPath>
    <clipPath id="clippath-5">
      <rect class="st7" x="-67.4" y="2763" width="164.9" height="259.5"/>
    </clipPath>
    <clipPath id="clippath-6">
      <rect class="st7" x="-67.4" y="4108.1" width="164.9" height="259.5"/>
    </clipPath>
    <clipPath id="clippath-7">
      <rect class="st7" x="-67.4" y="5453.1" width="164.9" height="259.5"/>
    </clipPath>
  </defs>
  <g class="st11">
    <path class="st17" d="M167.5,280.5l-35.7,32.9v-184.8h33.8c3.2,0,5.8,2.6,5.8,5.8v137.3c0,3.4-1.4,6.6-3.9,8.9h0Z"/>
    <g class="st16">
      <path class="st13" d="M137.2,128.4h-13.5v192.6l10.3-9c3.8-3.3,5.9-8.1,5.9-13.1v-167.7c0-1.5-1.2-2.7-2.7-2.7h0Z"/>
    </g>
  </g>
  <path class="st15" d="M136.9-68.6V982.7c0,10.2-5.7,19.1-14.1,23.7-8,4.4-12.8,13.1-12.8,22.2v5039.3H-68.5V-68.6h205.4Z"/>
  <g class="st8">
    <g>
      <path class="st4" d="M123.7,889.8v4.3H51.7c.8-1.3.8-3,0-4.3h72Z"/>
      <path class="st4" d="M123.7,942.1v4.3H51.7c.8-1.3.8-3,0-4.3h72Z"/>
      <path class="st4" d="M123.7,936.8v4.3H51.7c.8-1.3.8-3,0-4.3h72Z"/>
      <path class="st4" d="M123.7,970.9v3.2H51.7c.8-1.1.8-2.1,0-3.2h72Z"/>
      <rect class="st4" x="51.7" y="912.2" width="72" height="2.1"/>
      <rect class="st4" x="51.7" y="924" width="72" height="2.1"/>
      <rect class="st4" x="51.7" y="930.4" width="72" height="2.1"/>
      <rect class="st4" x="51.7" y="933.6" width="72" height="2.1"/>
      <rect class="st4" x="51.7" y="953.8" width="72" height="2.1"/>
      <rect class="st4" x="51.7" y="977.3" width="72" height="2.1"/>
      <rect class="st4" x="51.7" y="965.6" width="72" height="2.1"/>
      <rect class="st4" x="51.7" y="873.8" width="72" height="2.1"/>
      <rect class="st4" x="51.7" y="883.4" width="72" height="2.1"/>
      <rect class="st4" x="51.7" y="886.6" width="72" height="2.1"/>
      <rect class="st4" x="51.7" y="895.2" width="72" height="2.1"/>
      <rect class="st4" x="51.7" y="860" width="72" height="2.1"/>
      <rect class="st4" x="52.2" y="848.2" width="71.5" height="2.1"/>
      <rect class="st4" x="51.1" y="851.4" width="72.5" height="1.1"/>
      <rect class="st4" x="51.1" y="854.6" width="72.5" height="1.1"/>
      <rect class="st4" x="51.1" y="866.4" width="72.5" height="1.1"/>
      <rect class="st4" x="51.1" y="869.6" width="72.5" height="1.1"/>
      <rect class="st4" x="51.1" y="871.7" width="72.5" height="1.1"/>
      <rect class="st4" x="51.1" y="918.6" width="72.5" height="1.1"/>
      <rect class="st4" x="51.1" y="910.1" width="72.5" height="1.1"/>
      <rect class="st4" x="51.1" y="906.9" width="72.5" height="1.1"/>
      <rect class="st4" x="51.1" y="901.6" width="72.5" height="1.1"/>
      <rect class="st4" x="51.1" y="947.4" width="72.5" height="1.1"/>
      <rect class="st4" x="51.1" y="960.2" width="72.5" height="1.1"/>
      <rect class="st4" x="51.1" y="962.4" width="72.5" height="1.1"/>
      <rect class="st4" x="51.1" y="927.2" width="72.5" height="1.1"/>
      <rect class="st4" x="51.1" y="899.4" width="72.5" height="1.1"/>
      <rect class="st4" x="51.1" y="975.2" width="72.5" height="1.1"/>
      <rect class="st4" x="51.1" y="878.1" width="72.5" height="1.1"/>
      <rect class="st4" x="51.1" y="950.6" width="72.5" height="1.1"/>
    </g>
  </g>
  <path class="st6" d="M102.9,14.2h-34.5c-6.3,0-9.9,7.1-6.3,12.2l15,21.2c1.4,2,3.8,3.2,6.3,3.2h19.4c10.1,0,18.3-8.2,18.3-18.3h0c0-10.1-8.2-18.3-18.3-18.3h0Z"/>
  <circle class="st15" cx="101.7" cy="32.7" r="14.4"/>
  <g class="st14">
    <g>
      <path class="st4" d="M73.2,978.7H-29.3v-16.7H12.4v-21.2l-41.7-30.8v-18h5.4l45.8,33.8,45.8-34h5.4v18.2l-41.7,30.8v21.2h41.7v16.7h0Z"/>
      <path class="st4" d="M70.5,870.9c-1.8,2.6-4.2,4.7-7.2,6.3s-6.2,2.4-9.8,2.4H10.3c-3.6,0-6.9-.8-9.8-2.4-2.9-1.6-5.3-3.7-7.1-6.3s-2.7-5.5-2.7-8.6v-39.2c0-3.2.9-6.1,2.6-8.7,1.8-2.6,4.1-4.7,7.1-6.3,3-1.5,6.3-2.3,9.9-2.3h31v57.4h11.5c.5,0,.9,0,1.2-.4.3-.3.5-.7.5-1.1v-55.9h18.7v56.5c0,3.1-.9,6-2.7,8.6h0ZM24.5,863.2v-41h-13.5c-.5,0-.9.2-1.2.4s-.5.7-.5,1.1v38c0,.4.2.8.5,1.1s.7.4,1.2.4h13.5Z"/>
      <path class="st4" d="M109.8,834.3h-18.8v-95.3c0-.4-.2-.8-.5-1.1s-.7-.4-1.2-.4h-16.1v40.1c0,3.2-.9,6.1-2.7,8.7-1.8,2.6-4.2,4.7-7.1,6.3s-6.2,2.4-9.8,2.4H-9.1v-16.4h61.9c.5,0,.9,0,1.2-.4.3-.3.5-.7.5-1.1v-38c0-.4-.2-.8-.5-1.1s-.7-.4-1.2-.4H-9.1v-16.4h99.2c3.6,0,6.9.8,9.9,2.3s5.4,3.6,7.1,6.2c1.8,2.6,2.6,5.5,2.6,8.7v96h.1Z"/>
      <path class="st4" d="M70.5,699.6c-1.8,2.6-4.2,4.7-7.2,6.3s-6.2,2.4-9.8,2.4H-36.6v-16.5H52.8c.5,0,.9-.2,1.2-.4.3-.3.5-.7.5-1.1v-13.9h18.7v14.7c0,3.1-.9,6-2.7,8.6h0Z"/>
      <path class="st4" d="M73.2,649.6c0,3.2-.9,6.1-2.7,8.7-1.8,2.6-4.2,4.7-7.2,6.3-3,1.5-6.2,2.3-9.8,2.3h-31v-57.4h-11.5c-.5,0-.9.2-1.2.4s-.5.7-.5,1.1v55.9H-9.4v-56.5c0-3.2.9-6.1,2.6-8.7,1.8-2.6,4.1-4.7,7.1-6.3,3-1.5,6.3-2.3,9.9-2.3h62.9v56.5h0ZM54.5,649v-39.5h-15.2v41h13.5c.5,0,.9,0,1.2-.4.3-.3.5-.7.5-1.1Z"/>
      <path class="st4" d="M73.2,581.2H-29.3v-16.4h102.5v16.4Z"/>
      <path class="st4" d="M109.8,708.3h-18.8v-209.8c0-.4-.2-.8-.5-1.1-.3-.3-.7-.4-1.2-.4h-16.1v40.1c0,3.2-.9,6.1-2.7,8.7-1.8,2.6-4.2,4.7-7.1,6.3s-6.2,2.4-9.8,2.4H-9.1v-16.4h61.9c.5,0,.9,0,1.2-.4.3-.3.5-.7.5-1.1v-38c0-.4-.2-.8-.5-1.1-.3-.3-.7-.4-1.2-.4H-9.1v-16.4h99.2c3.6,0,6.9.8,9.9,2.3s5.4,3.6,7.1,6.2c1.8,2.6,2.6,5.5,2.6,8.7v210.5h.1Z"/>
      <path class="st4" d="M73.2,431.2l-82.6,40v-18.9l59.9-28.7-59.9-28.6v-18.9l82.6,40.1v15h0Z"/>
    </g>
  </g>
  <g class="st11">
    <path d="M520.7,442.8c-.4,0-.6,0-.8-.2-.2-.1-.2-.2-.3-.4v-7.2c0-.2,0-.3.3-.4s.4-.2.8-.2.6,0,.8.2.2.2.3.4v7.2c0,.2,0,.3-.3.4s-.4.2-.8.2h0Z"/>
    <path d="M526.5,442.8c-.3,0-.5,0-.7-.1s-.3-.2-.4-.5l-2.8-6.2c-.2-.4-.2-.6,0-.8,0-.2.3-.4.7-.6.3-.1.5-.2.7-.2s.3,0,.5.2c0,.1.2.3.3.5l1.9,4.7,1.9-4.7c0-.2.2-.4.3-.5s.3-.2.5-.2.4,0,.6.2c.4.2.6.4.7.6,0,.2,0,.5,0,.8l-2.8,6.2c0,.2-.2.3-.4.4s-.4.2-.6.2h-.2Z"/>
  </g>
  <g class="st5">
    <g class="st5">
      <g class="st5">
        <text class="st3" transform="translate(118.7 972.9) rotate(-90)"><tspan x="0" y="0">© 2025 Keyla. All rights reserved.</tspan></text>
      </g>
    </g>
  </g>
  <g class="st11">
    <rect class="st12" x="107.1" y="128.5" width="15.8" height="184.8" rx="4.5" ry="4.5"/>
  </g>
  <g class="st10">
    <g>
      <polygon class="st4" points="132.5 94.1 132.5 96.2 -54.9 -50.3 -54.9 -52.4 132.5 94.1"/>
      <polygon class="st4" points="132.5 104.3 132.5 106.4 -54.9 -40.1 -54.9 -42.1 132.5 104.3"/>
      <polygon class="st4" points="132.5 114.6 132.5 116.7 -54.9 -29.8 -54.9 -31.9 132.5 114.6"/>
      <polygon class="st4" points="132.5 124.8 132.5 126.9 -54.9 -19.6 -54.9 -21.6 132.5 124.8"/>
      <polygon class="st4" points="132.5 135.1 132.5 137.1 -54.9 -9.3 -54.9 -11.4 132.5 135.1"/>
      <polygon class="st4" points="132.5 145.3 132.5 147.4 -54.9 .9 -54.9 -1.1 132.5 145.3"/>
      <polygon class="st4" points="132.5 155.6 132.5 157.6 -54.9 11.2 -54.9 9.1 132.5 155.6"/>
      <polygon class="st4" points="132.5 165.8 132.5 167.9 -54.9 21.4 -54.9 19.4 132.5 165.8"/>
      <polygon class="st4" points="132.5 176.1 132.5 178.1 -54.9 31.6 -54.9 29.6 132.5 176.1"/>
      <polygon class="st4" points="132.5 186.3 132.5 188.4 -54.9 41.9 -54.9 39.8 132.5 186.3"/>
      <polygon class="st4" points="132.5 196.6 132.5 198.6 -54.9 52.1 -54.9 50.1 132.5 196.6"/>
      <polygon class="st4" points="132.5 206.8 132.5 208.9 -54.9 62.4 -54.9 60.3 132.5 206.8"/>
      <polygon class="st4" points="132.5 217.1 132.5 219.1 -54.9 72.6 -54.9 70.6 132.5 217.1"/>
      <polygon class="st4" points="132.5 227.3 132.5 229.4 -54.9 82.9 -54.9 80.8 132.5 227.3"/>
      <polygon class="st4" points="132.5 237.6 132.5 239.6 -54.9 93.1 -54.9 91.1 132.5 237.6"/>
      <polygon class="st4" points="132.5 247.8 132.5 249.9 -54.9 103.4 -54.9 101.3 132.5 247.8"/>
      <polygon class="st4" points="132.5 258 132.5 260.1 -54.9 113.6 -54.9 111.6 132.5 258"/>
      <polygon class="st4" points="132.5 268.3 132.5 270.4 -54.9 123.9 -54.9 121.8 132.5 268.3"/>
      <polygon class="st4" points="132.5 278.5 132.5 280.6 -54.9 134.1 -54.9 132.1 132.5 278.5"/>
      <polygon class="st4" points="132.5 288.8 132.5 290.9 -54.9 144.4 -54.9 142.3 132.5 288.8"/>
      <polygon class="st4" points="132.5 299 132.5 301.1 -54.9 154.6 -54.9 152.6 132.5 299"/>
      <polygon class="st4" points="132.5 309.3 132.5 311.3 -54.9 164.9 -54.9 162.8 132.5 309.3"/>
      <polygon class="st4" points="132.5 319.5 132.5 321.6 -54.9 175.1 -54.9 173.1 132.5 319.5"/>
      <polygon class="st4" points="132.5 329.8 132.5 331.8 -54.9 185.4 -54.9 183.3 132.5 329.8"/>
      <polygon class="st4" points="132.5 340 132.5 342.1 -54.9 195.6 -54.9 193.5 132.5 340"/>
      <polygon class="st4" points="132.5 350.3 132.5 352.3 -54.9 205.8 -54.9 203.8 132.5 350.3"/>
      <polygon class="st4" points="132.5 360.5 132.5 362.6 -54.9 216.1 -54.9 214 132.5 360.5"/>
      <polygon class="st4" points="132.5 370.8 132.5 372.8 -54.9 226.3 -54.9 224.3 132.5 370.8"/>
      <polygon class="st4" points="132.5 381 132.5 383.1 -54.9 236.6 -54.9 234.5 132.5 381"/>
      <polygon class="st4" points="132.5 391.3 132.5 393.3 -54.9 246.8 -54.9 244.8 132.5 391.3"/>
      <polygon class="st4" points="132.5 401.5 132.5 403.6 -54.9 257.1 -54.9 255 132.5 401.5"/>
      <polygon class="st4" points="132.5 411.8 132.5 413.8 -54.9 267.3 -54.9 265.3 132.5 411.8"/>
      <polygon class="st4" points="132.5 422 132.5 424.1 -54.9 277.6 -54.9 275.5 132.5 422"/>
      <polygon class="st4" points="132.5 432.2 132.5 434.3 -54.9 287.8 -54.9 285.8 132.5 432.2"/>
      <polygon class="st4" points="132.5 442.5 132.5 444.5 -54.9 298.1 -54.9 296 132.5 442.5"/>
      <polygon class="st4" points="132.5 452.7 132.5 454.8 -54.9 308.3 -54.9 306.2 132.5 452.7"/>
      <polygon class="st4" points="132.5 463 132.5 465 -54.9 318.6 -54.9 316.5 132.5 463"/>
      <polygon class="st4" points="132.5 473.2 132.5 475.3 -54.9 328.8 -54.9 326.8 132.5 473.2"/>
      <polygon class="st4" points="132.5 483.5 132.5 485.5 -54.9 339 -54.9 337 132.5 483.5"/>
      <polygon class="st4" points="132.5 493.7 132.5 495.8 -54.9 349.3 -54.9 347.2 132.5 493.7"/>
      <polygon class="st4" points="132.5 504 132.5 506 -54.9 359.5 -54.9 357.5 132.5 504"/>
    </g>
  </g>
  <g class="st2">
    <g>
      <polygon class="st4" points="108.8 1421.8 108.8 1423.9 -78.6 1277.4 -78.6 1275.3 108.8 1421.8"/>
      <polygon class="st4" points="108.8 1432 108.8 1434.1 -78.6 1287.6 -78.6 1285.6 108.8 1432"/>
      <polygon class="st4" points="108.8 1442.3 108.8 1444.4 -78.6 1297.9 -78.6 1295.8 108.8 1442.3"/>
      <polygon class="st4" points="108.8 1452.5 108.8 1454.6 -78.6 1308.1 -78.6 1306.1 108.8 1452.5"/>
      <polygon class="st4" points="108.8 1462.8 108.8 1464.8 -78.6 1318.4 -78.6 1316.3 108.8 1462.8"/>
      <polygon class="st4" points="108.8 1473 108.8 1475.1 -78.6 1328.6 -78.6 1326.6 108.8 1473"/>
      <polygon class="st4" points="108.8 1483.3 108.8 1485.3 -78.6 1338.9 -78.6 1336.8 108.8 1483.3"/>
      <polygon class="st4" points="108.8 1493.5 108.8 1495.6 -78.6 1349.1 -78.6 1347.1 108.8 1493.5"/>
      <polygon class="st4" points="108.8 1503.8 108.8 1505.8 -78.6 1359.3 -78.6 1357.3 108.8 1503.8"/>
      <polygon class="st4" points="108.8 1514 108.8 1516.1 -78.6 1369.6 -78.6 1367.5 108.8 1514"/>
      <polygon class="st4" points="108.8 1524.3 108.8 1526.3 -78.6 1379.8 -78.6 1377.8 108.8 1524.3"/>
      <polygon class="st4" points="108.8 1534.5 108.8 1536.6 -78.6 1390.1 -78.6 1388 108.8 1534.5"/>
      <polygon class="st4" points="108.8 1544.8 108.8 1546.8 -78.6 1400.3 -78.6 1398.3 108.8 1544.8"/>
      <polygon class="st4" points="108.8 1555 108.8 1557.1 -78.6 1410.6 -78.6 1408.5 108.8 1555"/>
      <polygon class="st4" points="108.8 1565.3 108.8 1567.3 -78.6 1420.8 -78.6 1418.8 108.8 1565.3"/>
      <polygon class="st4" points="108.8 1575.5 108.8 1577.6 -78.6 1431.1 -78.6 1429 108.8 1575.5"/>
      <polygon class="st4" points="108.8 1585.7 108.8 1587.8 -78.6 1441.3 -78.6 1439.3 108.8 1585.7"/>
      <polygon class="st4" points="108.8 1596 108.8 1598.1 -78.6 1451.6 -78.6 1449.5 108.8 1596"/>
      <polygon class="st4" points="108.8 1606.2 108.8 1608.3 -78.6 1461.8 -78.6 1459.8 108.8 1606.2"/>
      <polygon class="st4" points="108.8 1616.5 108.8 1618.6 -78.6 1472.1 -78.6 1470 108.8 1616.5"/>
      <polygon class="st4" points="108.8 1626.7 108.8 1628.8 -78.6 1482.3 -78.6 1480.3 108.8 1626.7"/>
      <polygon class="st4" points="108.8 1637 108.8 1639 -78.6 1492.6 -78.6 1490.5 108.8 1637"/>
      <polygon class="st4" points="108.8 1647.2 108.8 1649.3 -78.6 1502.8 -78.6 1500.8 108.8 1647.2"/>
      <polygon class="st4" points="108.8 1657.5 108.8 1659.5 -78.6 1513.1 -78.6 1511 108.8 1657.5"/>
      <polygon class="st4" points="108.8 1667.7 108.8 1669.8 -78.6 1523.3 -78.6 1521.2 108.8 1667.7"/>
      <polygon class="st4" points="108.8 1678 108.8 1680 -78.6 1533.5 -78.6 1531.5 108.8 1678"/>
      <polygon class="st4" points="108.8 1688.2 108.8 1690.3 -78.6 1543.8 -78.6 1541.7 108.8 1688.2"/>
      <polygon class="st4" points="108.8 1698.5 108.8 1700.5 -78.6 1554 -78.6 1552 108.8 1698.5"/>
      <polygon class="st4" points="108.8 1708.7 108.8 1710.8 -78.6 1564.3 -78.6 1562.2 108.8 1708.7"/>
      <polygon class="st4" points="108.8 1719 108.8 1721 -78.6 1574.5 -78.6 1572.5 108.8 1719"/>
      <polygon class="st4" points="108.8 1729.2 108.8 1731.3 -78.6 1584.8 -78.6 1582.7 108.8 1729.2"/>
      <polygon class="st4" points="108.8 1739.5 108.8 1741.5 -78.6 1595 -78.6 1593 108.8 1739.5"/>
      <polygon class="st4" points="108.8 1749.7 108.8 1751.8 -78.6 1605.3 -78.6 1603.2 108.8 1749.7"/>
      <polygon class="st4" points="108.8 1759.9 108.8 1762 -78.6 1615.5 -78.6 1613.5 108.8 1759.9"/>
      <polygon class="st4" points="108.8 1770.2 108.8 1772.2 -78.6 1625.8 -78.6 1623.7 108.8 1770.2"/>
      <polygon class="st4" points="108.8 1780.4 108.8 1782.5 -78.6 1636 -78.6 1633.9 108.8 1780.4"/>
      <polygon class="st4" points="108.8 1790.7 108.8 1792.7 -78.6 1646.3 -78.6 1644.2 108.8 1790.7"/>
      <polygon class="st4" points="108.8 1800.9 108.8 1803 -78.6 1656.5 -78.6 1654.5 108.8 1800.9"/>
      <polygon class="st4" points="108.8 1811.2 108.8 1813.2 -78.6 1666.7 -78.6 1664.7 108.8 1811.2"/>
      <polygon class="st4" points="108.8 1821.4 108.8 1823.5 -78.6 1677 -78.6 1674.9 108.8 1821.4"/>
      <polygon class="st4" points="108.8 1831.7 108.8 1833.7 -78.6 1687.2 -78.6 1685.2 108.8 1831.7"/>
    </g>
  </g>
  <g class="st9">
    <g>
      <polygon class="st4" points="108.8 2766.8 108.8 2768.9 -78.6 2622.4 -78.6 2620.3 108.8 2766.8"/>
      <polygon class="st4" points="108.8 2777 108.8 2779.1 -78.6 2632.6 -78.6 2630.6 108.8 2777"/>
      <polygon class="st4" points="108.8 2787.3 108.8 2789.4 -78.6 2642.9 -78.6 2640.8 108.8 2787.3"/>
      <polygon class="st4" points="108.8 2797.5 108.8 2799.6 -78.6 2653.1 -78.6 2651.1 108.8 2797.5"/>
      <polygon class="st4" points="108.8 2807.8 108.8 2809.8 -78.6 2663.4 -78.6 2661.3 108.8 2807.8"/>
      <polygon class="st4" points="108.8 2818 108.8 2820.1 -78.6 2673.6 -78.6 2671.6 108.8 2818"/>
      <polygon class="st4" points="108.8 2828.3 108.8 2830.3 -78.6 2683.9 -78.6 2681.8 108.8 2828.3"/>
      <polygon class="st4" points="108.8 2838.5 108.8 2840.6 -78.6 2694.1 -78.6 2692.1 108.8 2838.5"/>
      <polygon class="st4" points="108.8 2848.8 108.8 2850.8 -78.6 2704.3 -78.6 2702.3 108.8 2848.8"/>
      <polygon class="st4" points="108.8 2859 108.8 2861.1 -78.6 2714.6 -78.6 2712.5 108.8 2859"/>
      <polygon class="st4" points="108.8 2869.3 108.8 2871.3 -78.6 2724.8 -78.6 2722.8 108.8 2869.3"/>
      <polygon class="st4" points="108.8 2879.5 108.8 2881.6 -78.6 2735.1 -78.6 2733 108.8 2879.5"/>
      <polygon class="st4" points="108.8 2889.8 108.8 2891.8 -78.6 2745.3 -78.6 2743.3 108.8 2889.8"/>
      <polygon class="st4" points="108.8 2900 108.8 2902.1 -78.6 2755.6 -78.6 2753.5 108.8 2900"/>
      <polygon class="st4" points="108.8 2910.3 108.8 2912.3 -78.6 2765.8 -78.6 2763.8 108.8 2910.3"/>
      <polygon class="st4" points="108.8 2920.5 108.8 2922.6 -78.6 2776.1 -78.6 2774 108.8 2920.5"/>
      <polygon class="st4" points="108.8 2930.7 108.8 2932.8 -78.6 2786.3 -78.6 2784.3 108.8 2930.7"/>
      <polygon class="st4" points="108.8 2941 108.8 2943.1 -78.6 2796.6 -78.6 2794.5 108.8 2941"/>
      <polygon class="st4" points="108.8 2951.2 108.8 2953.3 -78.6 2806.8 -78.6 2804.8 108.8 2951.2"/>
      <polygon class="st4" points="108.8 2961.5 108.8 2963.6 -78.6 2817.1 -78.6 2815 108.8 2961.5"/>
      <polygon class="st4" points="108.8 2971.7 108.8 2973.8 -78.6 2827.3 -78.6 2825.3 108.8 2971.7"/>
      <polygon class="st4" points="108.8 2982 108.8 2984 -78.6 2837.6 -78.6 2835.5 108.8 2982"/>
      <polygon class="st4" points="108.8 2992.2 108.8 2994.3 -78.6 2847.8 -78.6 2845.8 108.8 2992.2"/>
      <polygon class="st4" points="108.8 3002.5 108.8 3004.5 -78.6 2858.1 -78.6 2856 108.8 3002.5"/>
      <polygon class="st4" points="108.8 3012.7 108.8 3014.8 -78.6 2868.3 -78.6 2866.2 108.8 3012.7"/>
      <polygon class="st4" points="108.8 3023 108.8 3025 -78.6 2878.5 -78.6 2876.5 108.8 3023"/>
      <polygon class="st4" points="108.8 3033.2 108.8 3035.3 -78.6 2888.8 -78.6 2886.7 108.8 3033.2"/>
      <polygon class="st4" points="108.8 3043.5 108.8 3045.5 -78.6 2899 -78.6 2897 108.8 3043.5"/>
      <polygon class="st4" points="108.8 3053.7 108.8 3055.8 -78.6 2909.3 -78.6 2907.2 108.8 3053.7"/>
      <polygon class="st4" points="108.8 3064 108.8 3066 -78.6 2919.5 -78.6 2917.5 108.8 3064"/>
      <polygon class="st4" points="108.8 3074.2 108.8 3076.3 -78.6 2929.8 -78.6 2927.7 108.8 3074.2"/>
      <polygon class="st4" points="108.8 3084.5 108.8 3086.5 -78.6 2940 -78.6 2938 108.8 3084.5"/>
      <polygon class="st4" points="108.8 3094.7 108.8 3096.8 -78.6 2950.3 -78.6 2948.2 108.8 3094.7"/>
      <polygon class="st4" points="108.8 3104.9 108.8 3107 -78.6 2960.5 -78.6 2958.5 108.8 3104.9"/>
      <polygon class="st4" points="108.8 3115.2 108.8 3117.2 -78.6 2970.8 -78.6 2968.7 108.8 3115.2"/>
      <polygon class="st4" points="108.8 3125.4 108.8 3127.5 -78.6 2981 -78.6 2978.9 108.8 3125.4"/>
      <polygon class="st4" points="108.8 3135.7 108.8 3137.7 -78.6 2991.3 -78.6 2989.2 108.8 3135.7"/>
      <polygon class="st4" points="108.8 3145.9 108.8 3148 -78.6 3001.5 -78.6 2999.5 108.8 3145.9"/>
      <polygon class="st4" points="108.8 3156.2 108.8 3158.2 -78.6 3011.7 -78.6 3009.7 108.8 3156.2"/>
      <polygon class="st4" points="108.8 3166.4 108.8 3168.5 -78.6 3022 -78.6 3019.9 108.8 3166.4"/>
      <polygon class="st4" points="108.8 3176.7 108.8 3178.7 -78.6 3032.2 -78.6 3030.2 108.8 3176.7"/>
    </g>
  </g>
  <g class="st0">
    <g>
      <polygon class="st4" points="108.8 4111.9 108.8 4114 -78.6 3967.5 -78.6 3965.4 108.8 4111.9"/>
      <polygon class="st4" points="108.8 4122.1 108.8 4124.2 -78.6 3977.7 -78.6 3975.7 108.8 4122.1"/>
      <polygon class="st4" points="108.8 4132.4 108.8 4134.5 -78.6 3988 -78.6 3985.9 108.8 4132.4"/>
      <polygon class="st4" points="108.8 4142.6 108.8 4144.7 -78.6 3998.2 -78.6 3996.2 108.8 4142.6"/>
      <polygon class="st4" points="108.8 4152.9 108.8 4154.9 -78.6 4008.5 -78.6 4006.4 108.8 4152.9"/>
      <polygon class="st4" points="108.8 4163.1 108.8 4165.2 -78.6 4018.7 -78.6 4016.7 108.8 4163.1"/>
      <polygon class="st4" points="108.8 4173.4 108.8 4175.4 -78.6 4029 -78.6 4026.9 108.8 4173.4"/>
      <polygon class="st4" points="108.8 4183.6 108.8 4185.7 -78.6 4039.2 -78.6 4037.2 108.8 4183.6"/>
      <polygon class="st4" points="108.8 4193.9 108.8 4195.9 -78.6 4049.4 -78.6 4047.4 108.8 4193.9"/>
      <polygon class="st4" points="108.8 4204.1 108.8 4206.2 -78.6 4059.7 -78.6 4057.6 108.8 4204.1"/>
      <polygon class="st4" points="108.8 4214.4 108.8 4216.4 -78.6 4069.9 -78.6 4067.9 108.8 4214.4"/>
      <polygon class="st4" points="108.8 4224.6 108.8 4226.7 -78.6 4080.2 -78.6 4078.1 108.8 4224.6"/>
      <polygon class="st4" points="108.8 4234.9 108.8 4236.9 -78.6 4090.4 -78.6 4088.4 108.8 4234.9"/>
      <polygon class="st4" points="108.8 4245.1 108.8 4247.2 -78.6 4100.7 -78.6 4098.6 108.8 4245.1"/>
      <polygon class="st4" points="108.8 4255.4 108.8 4257.4 -78.6 4110.9 -78.6 4108.9 108.8 4255.4"/>
      <polygon class="st4" points="108.8 4265.6 108.8 4267.7 -78.6 4121.2 -78.6 4119.1 108.8 4265.6"/>
      <polygon class="st4" points="108.8 4275.8 108.8 4277.9 -78.6 4131.4 -78.6 4129.4 108.8 4275.8"/>
      <polygon class="st4" points="108.8 4286.1 108.8 4288.2 -78.6 4141.7 -78.6 4139.6 108.8 4286.1"/>
      <polygon class="st4" points="108.8 4296.3 108.8 4298.4 -78.6 4151.9 -78.6 4149.9 108.8 4296.3"/>
      <polygon class="st4" points="108.8 4306.6 108.8 4308.7 -78.6 4162.2 -78.6 4160.1 108.8 4306.6"/>
      <polygon class="st4" points="108.8 4316.8 108.8 4318.9 -78.6 4172.4 -78.6 4170.4 108.8 4316.8"/>
      <polygon class="st4" points="108.8 4327.1 108.8 4329.1 -78.6 4182.7 -78.6 4180.6 108.8 4327.1"/>
      <polygon class="st4" points="108.8 4337.3 108.8 4339.4 -78.6 4192.9 -78.6 4190.9 108.8 4337.3"/>
      <polygon class="st4" points="108.8 4347.6 108.8 4349.6 -78.6 4203.2 -78.6 4201.1 108.8 4347.6"/>
      <polygon class="st4" points="108.8 4357.8 108.8 4359.9 -78.6 4213.4 -78.6 4211.3 108.8 4357.8"/>
      <polygon class="st4" points="108.8 4368.1 108.8 4370.1 -78.6 4223.6 -78.6 4221.6 108.8 4368.1"/>
      <polygon class="st4" points="108.8 4378.3 108.8 4380.4 -78.6 4233.9 -78.6 4231.8 108.8 4378.3"/>
      <polygon class="st4" points="108.8 4388.6 108.8 4390.6 -78.6 4244.1 -78.6 4242.1 108.8 4388.6"/>
      <polygon class="st4" points="108.8 4398.8 108.8 4400.9 -78.6 4254.4 -78.6 4252.3 108.8 4398.8"/>
      <polygon class="st4" points="108.8 4409.1 108.8 4411.1 -78.6 4264.6 -78.6 4262.6 108.8 4409.1"/>
      <polygon class="st4" points="108.8 4419.3 108.8 4421.4 -78.6 4274.9 -78.6 4272.8 108.8 4419.3"/>
      <polygon class="st4" points="108.8 4429.6 108.8 4431.6 -78.6 4285.1 -78.6 4283.1 108.8 4429.6"/>
      <polygon class="st4" points="108.8 4439.8 108.8 4441.9 -78.6 4295.4 -78.6 4293.3 108.8 4439.8"/>
      <polygon class="st4" points="108.8 4450 108.8 4452.1 -78.6 4305.6 -78.6 4303.6 108.8 4450"/>
      <polygon class="st4" points="108.8 4460.3 108.8 4462.3 -78.6 4315.9 -78.6 4313.8 108.8 4460.3"/>
      <polygon class="st4" points="108.8 4470.5 108.8 4472.6 -78.6 4326.1 -78.6 4324 108.8 4470.5"/>
      <polygon class="st4" points="108.8 4480.8 108.8 4482.8 -78.6 4336.4 -78.6 4334.3 108.8 4480.8"/>
      <polygon class="st4" points="108.8 4491 108.8 4493.1 -78.6 4346.6 -78.6 4344.6 108.8 4491"/>
      <polygon class="st4" points="108.8 4501.3 108.8 4503.3 -78.6 4356.8 -78.6 4354.8 108.8 4501.3"/>
      <polygon class="st4" points="108.8 4511.5 108.8 4513.6 -78.6 4367.1 -78.6 4365 108.8 4511.5"/>
      <polygon class="st4" points="108.8 4521.8 108.8 4523.8 -78.6 4377.3 -78.6 4375.3 108.8 4521.8"/>
    </g>
  </g>
  <g class="st1">
    <g>
      <polygon class="st4" points="108.8 5456.9 108.8 5459 -78.6 5312.5 -78.6 5310.4 108.8 5456.9"/>
      <polygon class="st4" points="108.8 5467.1 108.8 5469.2 -78.6 5322.7 -78.6 5320.7 108.8 5467.1"/>
      <polygon class="st4" points="108.8 5477.4 108.8 5479.5 -78.6 5333 -78.6 5330.9 108.8 5477.4"/>
      <polygon class="st4" points="108.8 5487.6 108.8 5489.7 -78.6 5343.2 -78.6 5341.2 108.8 5487.6"/>
      <polygon class="st4" points="108.8 5497.9 108.8 5499.9 -78.6 5353.5 -78.6 5351.4 108.8 5497.9"/>
      <polygon class="st4" points="108.8 5508.1 108.8 5510.2 -78.6 5363.7 -78.6 5361.7 108.8 5508.1"/>
      <polygon class="st4" points="108.8 5518.4 108.8 5520.4 -78.6 5374 -78.6 5371.9 108.8 5518.4"/>
      <polygon class="st4" points="108.8 5528.6 108.8 5530.7 -78.6 5384.2 -78.6 5382.2 108.8 5528.6"/>
      <polygon class="st4" points="108.8 5538.9 108.8 5540.9 -78.6 5394.4 -78.6 5392.4 108.8 5538.9"/>
      <polygon class="st4" points="108.8 5549.1 108.8 5551.2 -78.6 5404.7 -78.6 5402.6 108.8 5549.1"/>
      <polygon class="st4" points="108.8 5559.4 108.8 5561.4 -78.6 5414.9 -78.6 5412.9 108.8 5559.4"/>
      <polygon class="st4" points="108.8 5569.6 108.8 5571.7 -78.6 5425.2 -78.6 5423.1 108.8 5569.6"/>
      <polygon class="st4" points="108.8 5579.9 108.8 5581.9 -78.6 5435.4 -78.6 5433.4 108.8 5579.9"/>
      <polygon class="st4" points="108.8 5590.1 108.8 5592.2 -78.6 5445.7 -78.6 5443.6 108.8 5590.1"/>
      <polygon class="st4" points="108.8 5600.4 108.8 5602.4 -78.6 5455.9 -78.6 5453.9 108.8 5600.4"/>
      <polygon class="st4" points="108.8 5610.6 108.8 5612.7 -78.6 5466.2 -78.6 5464.1 108.8 5610.6"/>
      <polygon class="st4" points="108.8 5620.8 108.8 5622.9 -78.6 5476.4 -78.6 5474.4 108.8 5620.8"/>
      <polygon class="st4" points="108.8 5631.1 108.8 5633.2 -78.6 5486.7 -78.6 5484.6 108.8 5631.1"/>
      <polygon class="st4" points="108.8 5641.3 108.8 5643.4 -78.6 5496.9 -78.6 5494.9 108.8 5641.3"/>
      <polygon class="st4" points="108.8 5651.6 108.8 5653.7 -78.6 5507.2 -78.6 5505.1 108.8 5651.6"/>
      <polygon class="st4" points="108.8 5661.8 108.8 5663.9 -78.6 5517.4 -78.6 5515.4 108.8 5661.8"/>
      <polygon class="st4" points="108.8 5672.1 108.8 5674.1 -78.6 5527.7 -78.6 5525.6 108.8 5672.1"/>
      <polygon class="st4" points="108.8 5682.3 108.8 5684.4 -78.6 5537.9 -78.6 5535.9 108.8 5682.3"/>
      <polygon class="st4" points="108.8 5692.6 108.8 5694.6 -78.6 5548.2 -78.6 5546.1 108.8 5692.6"/>
      <polygon class="st4" points="108.8 5702.8 108.8 5704.9 -78.6 5558.4 -78.6 5556.3 108.8 5702.8"/>
      <polygon class="st4" points="108.8 5713.1 108.8 5715.1 -78.6 5568.6 -78.6 5566.6 108.8 5713.1"/>
      <polygon class="st4" points="108.8 5723.3 108.8 5725.4 -78.6 5578.9 -78.6 5576.8 108.8 5723.3"/>
      <polygon class="st4" points="108.8 5733.6 108.8 5735.6 -78.6 5589.1 -78.6 5587.1 108.8 5733.6"/>
      <polygon class="st4" points="108.8 5743.8 108.8 5745.9 -78.6 5599.4 -78.6 5597.3 108.8 5743.8"/>
      <polygon class="st4" points="108.8 5754.1 108.8 5756.1 -78.6 5609.6 -78.6 5607.6 108.8 5754.1"/>
      <polygon class="st4" points="108.8 5764.3 108.8 5766.4 -78.6 5619.9 -78.6 5617.8 108.8 5764.3"/>
      <polygon class="st4" points="108.8 5774.6 108.8 5776.6 -78.6 5630.1 -78.6 5628.1 108.8 5774.6"/>
      <polygon class="st4" points="108.8 5784.8 108.8 5786.9 -78.6 5640.4 -78.6 5638.3 108.8 5784.8"/>
      <polygon class="st4" points="108.8 5795 108.8 5797.1 -78.6 5650.6 -78.6 5648.6 108.8 5795"/>
      <polygon class="st4" points="108.8 5805.3 108.8 5807.3 -78.6 5660.9 -78.6 5658.8 108.8 5805.3"/>
      <polygon class="st4" points="108.8 5815.5 108.8 5817.6 -78.6 5671.1 -78.6 5669 108.8 5815.5"/>
      <polygon class="st4" points="108.8 5825.8 108.8 5827.8 -78.6 5681.4 -78.6 5679.3 108.8 5825.8"/>
      <polygon class="st4" points="108.8 5836 108.8 5838.1 -78.6 5691.6 -78.6 5689.6 108.8 5836"/>
      <polygon class="st4" points="108.8 5846.3 108.8 5848.3 -78.6 5701.8 -78.6 5699.8 108.8 5846.3"/>
      <polygon class="st4" points="108.8 5856.5 108.8 5858.6 -78.6 5712.1 -78.6 5710 108.8 5856.5"/>
      <polygon class="st4" points="108.8 5866.8 108.8 5868.8 -78.6 5722.3 -78.6 5720.3 108.8 5866.8"/>
    </g>
  </g>
  <g>
    <path class="st6" d="M96.1,43.2v-20.6c0-.4.3-.7.7-.7h1.8c.4,0,.7.3.7.7v13c0,.3.4.4.6.2l4.9-4.9c.2-.2,0-.6-.2-.6h-3.3v-2.5c0-.4.3-.7.7-.7h10.3c.3,0,.4.4.2.6l-15.7,15.7c-.2.2-.6,0-.6-.2Z"/>
    <path class="st6" d="M92.3,27.4l-1.4,2.5c-.1.2,0,.5.3.5h2.3c.4,0,.7-.3.7-.7v-2.5s-1.5,0-1.5,0c-.2,0-.3,0-.4.2Z"/>
  </g>
  <rect class="st4" x="123" y="1020.4" width="13.9" height="5047.5" rx="7" ry="7"/>
</svg>