<?xml version="1.0" encoding="UTF-8"?>
<svg id="Layer_1" xmlns="http://www.w3.org/2000/svg" version="1.1" viewBox="0 0 160 160">
  <!-- Generator: Adobe Illustrator 29.2.0, SVG Export Plug-In . SVG Version: 2.1.0 Build 108)  -->
  <defs>
    <style>
      .st0 {
        fill: #fff;
      }

      .st1 {
        fill: #0a0a0a;
      }
    </style>
  </defs>
  <path class="st1" d="M20.6,60.18v74.71c0,20.36,22.96,32.21,39.58,20.46l68.94-48.87c6.62-4.71,10.55-12.34,10.55-20.46v-25.84C139.67,27.29,113.01.66,80.15.66h0C47.26.66,20.63,27.32,20.63,60.18c0,0-.03,0-.03,0Z"/>
  <circle class="st0" cx="80.14" cy="60.6" r="36.79"/>
  <path class="st1" d="M61.63,42.1c2.52-2.52,6.61-2.52,9.13,0l9.38,9.38,9.38-9.38c2.52-2.52,6.61-2.52,9.13,0s2.52,6.61,0,9.13l-9.38,9.38,9.38,9.38c2.52,2.52,2.52,6.61,0,9.13s-6.6,2.52-9.13,0l-9.38-9.38-9.38,9.38c-1.26,1.26-2.91,1.89-4.56,1.89s-3.3-.63-4.56-1.89c-2.52-2.52-2.52-6.6,0-9.13l9.38-9.38-9.38-9.38c-1.26-1.26-1.89-2.91-1.89-4.56s.63-3.3,1.89-4.56h-.01Z"/>
</svg>