<?xml version="1.0" encoding="UTF-8"?>
<svg id="Layer_1" xmlns="http://www.w3.org/2000/svg" version="1.1" viewBox="0 0 129.1 170">
  <!-- Generator: Adobe Illustrator 29.2.0, SVG Export Plug-In . SVG Version: 2.1.0 Build 108)  -->
  <defs>
    <style>
      .st0 {
        fill: #fff;
      }

      .st1 {
        display: none;
      }

      .st1, .st2 {
        fill: #0a0a0a;
      }
    </style>
  </defs>
  <path class="st1" d="M5,65.2v74.7c0,20.4,23,32.2,39.6,20.5l68.9-48.9c6.6-4.7,10.6-12.3,10.6-20.5v-25.8c0-32.9-26.7-59.5-59.5-59.5h0C31.7,5.7,5,32.3,5,65.2c0,0,0,0,0,0Z"/>
  <path class="st0" d="M30.2,170c-16.6,0-30.2-13.5-30.2-30.1V60.2h.2C2.8,26.9,30.7.7,64.6.7s64.5,28.9,64.5,64.5v25.8c0,9.7-4.7,18.9-12.7,24.5l-68.9,48.9c-5.2,3.6-11.1,5.6-17.3,5.6Z"/>
  <path class="st2" d="M5,65.2v74.7c0,20.4,23,32.2,39.6,20.5l68.9-48.9c6.6-4.7,10.6-12.3,10.6-20.5v-25.8c0-32.9-26.7-59.5-59.5-59.5h0C31.7,5.7,5,32.3,5,65.2c0,0,0,0,0,0Z"/>
  <circle class="st0" cx="64.5" cy="65.6" r="36.8"/>
  <path class="st2" d="M46,47.1c2.5-2.5,6.6-2.5,9.1,0l9.4,9.4,9.4-9.4c2.5-2.5,6.6-2.5,9.1,0s2.5,6.6,0,9.1l-9.4,9.4,9.4,9.4c2.5,2.5,2.5,6.6,0,9.1s-6.6,2.5-9.1,0l-9.4-9.4-9.4,9.4c-1.3,1.3-2.9,1.9-4.6,1.9s-3.3-.6-4.6-1.9c-2.5-2.5-2.5-6.6,0-9.1l9.4-9.4-9.4-9.4c-1.3-1.3-1.9-2.9-1.9-4.6s.6-3.3,1.9-4.6h0Z"/>
</svg>